<mxfile host="Electron" modified="2023-04-06T14:18:19.422Z" agent="Mozilla/5.0 (Windows NT 10.0; Win64; x64) AppleWebKit/537.36 (KHTML, like Gecko) draw.io/21.1.2 Chrome/106.0.5249.199 Electron/21.4.3 Safari/537.36" etag="Ztxv8dTEzcirk74QBY9G" version="21.1.2" type="device">
  <diagram name="Сторінка-1" id="LcphcgY_X2LprBfCQFoL">
    <mxGraphModel dx="1418" dy="828" grid="1" gridSize="10" guides="1" tooltips="1" connect="1" arrows="1" fold="1" page="1" pageScale="1" pageWidth="1169" pageHeight="827" math="0" shadow="0">
      <root>
        <mxCell id="0" />
        <mxCell id="1" parent="0" />
        <mxCell id="F0nHGyrmaJnnUvTs5qRS-10" value="" style="rounded=1;whiteSpace=wrap;html=1;fillColor=none;" parent="1" vertex="1">
          <mxGeometry x="240" y="160" width="710" height="470" as="geometry" />
        </mxCell>
        <mxCell id="F0nHGyrmaJnnUvTs5qRS-1" value="Messenger: User Service" style="text;html=1;strokeColor=none;fillColor=none;align=center;verticalAlign=middle;whiteSpace=wrap;rounded=0;fontStyle=1;fontSize=28;" parent="1" vertex="1">
          <mxGeometry x="440" y="50" width="360" height="30" as="geometry" />
        </mxCell>
        <mxCell id="F0nHGyrmaJnnUvTs5qRS-6" style="edgeStyle=orthogonalEdgeStyle;rounded=0;orthogonalLoop=1;jettySize=auto;html=1;exitX=0;exitY=0.5;exitDx=0;exitDy=0;startArrow=block;endArrow=none;endFill=0;endSize=6;startSize=14;" parent="1" source="F0nHGyrmaJnnUvTs5qRS-2" edge="1">
          <mxGeometry relative="1" as="geometry">
            <mxPoint x="110" y="380" as="targetPoint" />
          </mxGeometry>
        </mxCell>
        <mxCell id="F0nHGyrmaJnnUvTs5qRS-7" style="edgeStyle=orthogonalEdgeStyle;rounded=0;orthogonalLoop=1;jettySize=auto;html=1;exitX=1;exitY=0.25;exitDx=0;exitDy=0;elbow=vertical;endSize=14;" parent="1" source="F0nHGyrmaJnnUvTs5qRS-2" target="F0nHGyrmaJnnUvTs5qRS-3" edge="1">
          <mxGeometry relative="1" as="geometry" />
        </mxCell>
        <mxCell id="F0nHGyrmaJnnUvTs5qRS-11" style="edgeStyle=orthogonalEdgeStyle;rounded=0;orthogonalLoop=1;jettySize=auto;html=1;exitX=0;exitY=0.75;exitDx=0;exitDy=0;endSize=14;" parent="1" source="F0nHGyrmaJnnUvTs5qRS-2" edge="1">
          <mxGeometry relative="1" as="geometry">
            <mxPoint x="110" y="420" as="targetPoint" />
          </mxGeometry>
        </mxCell>
        <mxCell id="F0nHGyrmaJnnUvTs5qRS-2" value="" style="shape=image;verticalLabelPosition=bottom;labelBackgroundColor=default;verticalAlign=top;aspect=fixed;imageAspect=0;image=data:image/png,iVBORw0KGgoAAAANSUhEUgAAAX0AAAFqCAYAAAD2qopyAAAABGdBTUEAALGPC/xhBQAAAAlwSFlzAAAOwgAADsIBFShKgAAAjMZJREFUeF7tnYV7HEf2tb8/a3+JUZYsSwaZKXYMsYN2yAGHDGGOw7hJNrDZDfNmQxtmdGCDDm4YNsxbX72354xqWqORRhpJA/c8z53uaaiuurfq1O2q6qr/FxwOh8PRMnDSdzgcjhaCk77D4XC0EJz0HQ6Ho4XgpO9wOBwtBCd9h8PhaCE46TscDkcLwUnf4XA4WghO+g6Hw9FCcNJ3OByOFoKTvsPhcLQQnPQdDoejheCk73A4HC0EJ32Hw+FoITjpOxwORwvBSd/hcDhaCE76DofD0UJw0nc4HI4WgpO+w+FwtBCc9B0Oh6OF4KTvcDgcLQQnfYfD4WghOOk7HA5HC8FJ3+FwOFoITvoOh8PRQnDSdzgcjhaCk77D4XC0EJz0HQ6Ho4XgpO9wOBwtBCd9h8PhaCE46TscDkcLwUnf4XA4WghO+g6Hw9FCcNJ3OByOFoKTvsPhcLQQnPQdDoejheCk72gq/O9//zMZCeTDHqnnOBwjCSd9R8Pjt99+C7/++mv4/fffww8//BA+++yz8PHHH4cPPvgg/Oc//6mZfPjhhxb2L7/8Ys9ky3MRrwAcjQInfUfDA7KHeL/++uvwyCOPhLPPPjvst99+YY899ghr1qwJa9eurYkQ5plnnhkeffTR8OWXX5YQP/sORyPASd/R8IB0IeHLL788dHd3hwkTJoS2trbQ3t5u28mTJw9JJk2aVCITJ060452dneHKK68Mn3/+ub1ZyNt3OBoBTvqOhgeEe/PNN4cZM2YYKbe1TQmTJkLaEH5btj8EmWgC2WdC2BA/FUlXV1e49dZbzdOXt+9wNAKc9B0Nj2+//TYccMAB5tkbMU+YMiJC2JIpU6aEAw880JqUIH2amByORoCTvqPhQYftLrvsYmQ8fvz4soRdC0lJH1m2bFnYsWOHefl//PFHITYOR33DSd/R8IB4lyxZYk0v1vZehrBrISnh85zFixeH119/3Unf0VBw0nc0NCDbN9980wh4UKQ/kfb+CjKpvVfi/9J7Szt1qWh4NnHwIZuORoGTvqNhAdFCuG+88UaR9E1Sos5JRu4QejnhmracJPcr/CiMEIL033rrLSd8R0PBSd/RsBgS6UcPfnIFKXr8VABWCSTipO9oAjjpOxoWQyH98eMmh3E7Tyov4yaFCePbiuKevqMZ4aTvaFgMlvTNc49e/Ipddwt3//Oe8O6771aUu+++O6xevdrG46dEn4qTvqNR4aTvaFgMhvRpq588qcOIf8899gkvvrjdxtT3J0yn8MILL4Tdd9+9hOTz4qTvaFQ46TsaFoPy9CPZq71+zZo9I6Fvt/sqCaTPnD0pyefFSd/RqHDSd1QFCA6iTQUPWYTJPuPWdWwkobgMRPoafrl27V7R03+pGNdyQrwhfSZY09DMcjKapJ/Xt4S4al/xdzgGgpO+oypoGmOmHvj555/Djz/+aF/EvvLKK+HVV18N77zzjk1+9tNPPxkZjSQgOZ4xIOlHYX/tmoz0K4EwRfopyedltEifsNG59P79999bv8NLL70Utm/fbtM9YwvOs3U4BoKTvqMqpKT/xRdfhOuvvz4cffTRNvfNvvvuG7Zs2RL+/ve/h/fff99JvwYQ6aNzKtcbb7wxbN68Oaxfv970fcwxx9hkc1999ZXN+OlwDAQnfUdVUPMNi4qcc845Yfbs2UaCmp6AuW/mzp1r887jhY4kWoX00TfPOeOMM8KcOXOKz9eWY+eee67ZxOEYCE76joqAdET0CM05kPkpp5xic9dPmsj0xZBrtp0wgXlppoSZM3si8Z9tHj9vBTT31JocCW80Sd8mc4tbiDYlfeJQy7ShZ+n8l19+De+/92E49dQzQlfXjJgOpn3m+wGmeW4zXbe1dYRpnd1h27azwyeffB5+/eX3eB99KoUAHY4ETvqOioDQaLuHuCEhSPzkk08O06dPz8axpwSbkxkzZpl3SrMEYTQ66UsgfDp5WZnrvffeM73UmvSl83feeTecfNJpoWsahM93A0naTKhsO2Kc2kJ318xw+mlnRuL/IvzwA/by6Z4dfeGk76gIyEwk9NFHH0WP89Ti6lTZ5Gb9E//48RNtlSmaeri30UlfHj7S09MT9t57b5twDXLGM68VaJsnTCqU4447PnS0d0Vdtxu5l6QtCmmbMH5yYVhqR5gxnTesc8Onkfh//91dfUdfOOk7KkKkz0Ljp512mpE4i5VA+LTh50kolazZZ6Jdz7q1jDypJUab9JFx48YZ4dOXQfOOplauJemjJyrJrVu3hiltGZnjyadpSQXCz85lE8dNi28FZ247N3z55deFEB2OXjjpO/qA9ncEb1MePp2206ZNy7z7lAgrePrZcoPZddx38cUXW7h4st98803haYMD5I5AsIxmEeHzn6GiCxcutOYmvPDSOAyd9GnDl2dPGiD8efPmhfnz59s5nslQVfSkETYIaaQSSKUSuB+dfPfdd3bvJ598Eg4//HB7Bss9lqSnksR02qRxUaZ2dIXzz7/QRlgRJvFzOICTvqMP6KwVcX366afhkksusSYdlgjsMx/NIEkfgTwhfjxZwh8sIGIIUfFiH2J8/PHHw7Zt28Kuu+5q8aJiqSXpp/Fmi3fPSBnIX8dYPYt+i0cffdTixNKNqgTQH5UA/yuB81wnD//QQw8NO+20U5g6dWok/lx6Kgq2YE3g9ngfSzp2hD//+c/hs88+M92RNofDSd/RBxArJEQH7KWXXmqeLYRXdgKyKkgfUiaMiy66KPz3v/8tPG1gQFaff/65rZAFudKvQNMKzUuQrzUzJc8ojcPQSZ+wRe6zZs0yws+87+y5HE+3eP40gT300EM2wkmVG29LlUDlACm//fbbYf/99y+mo2pPH7G0tlmTUNvkKdYcJ+J30ncAJ/0WRL7w81/NJwgExJhvvHJIuq1tSujpwcudG9rbOyKx0MQDuUJ22RBNOhMzL5OKQQIZF66NQjiTJ+GBtkciutSIP/9s/SeKv//+R/jyy6/Ca/9+LVxxxZVhzRqmRpichWNkCNHj3YvwIxmbZ8y5gjCskbjEeK5ds0ck/e2FVJcHz4b0mXsHIod8Z86cae34hK/nIZOStBEf4oVnzv7uu+8Rrr76r2H79pdihUWnajZlAunLy6+//hbeeuvtsGHDQRYuOrK0FNJXNj1so96tQssJnn62zzWTzWaXXnpZ+OKLL2Mcon6jXuNjHS0KJ/0WQUqoefKhKUIeKU0NjBq58MILrTnHiC6SDW3FM2fOCT2z5kYPMpu1ks5FiFEfZUGQ7LPNBKKK5FNG6GzEA6X5iOeq6QbBQ/7wg4/Dgw8+Gk47dVuYO2dB2TD6lVgB5IV44r0zdUF/kC6ee+45m2WTtIjw7W3CiLfM88oI+mJO/vnzF4fTTz/LvH+Gu5I+dIwo3S9tfyUceugR5p0jJWEZwfemg3ioKYsOckb06D7r0C25l8qxw+IxtaM7XHjBJbEC+jr88P3P4ddffE3fVoWTfosAoofQ1Nacep5qd4aE6PhjpE1HBx49RINnC9kViH/GbCP+9imdRiwifAiIpgSRvwmElZJQibSFGTNmWH8B7dg8m85M5u75xz/+EU444eQwK1YyXJe9RZQLox9JSBKRx75u3Trr9O0PIn3mtTnwwAOtSQfSJ42EUQ3p05lK5aj4U3GceOKJ4Z///Kc1U9GRTd/Es88+Gw495LBI5FP7Ie5S0icdxAfdGenH6/sl/UJ8rYKOcaBz95KLLwuffPxF+OnHXwupdrQanPRbBJA8xIqo45BjEB1bjtGkc9ZZZxnh400aWU7kC9BCM0IkEciMseCz8PgjUdHEQYcj8++cdNJJxRE+iDXvlJBQKhmZQYa08b/22mvh/vvvD8cff7z1IfCVKV4qxNmXzAaQhCRTYZ4aKphKoCJED6effroRvvoxqib9wvBJOlSJv90fw6Fv5Nhjjw333HNP+Ne//hU2bNgQyXhaPJe9HfRJa470ESojpl0gPVS+lTx9tma/eI5te/u0cM7Z54fPP/uqkGJHq8FJv0kBmacib16ePvv6T5MDHY90QkLgELbIDtLP2odFIBmZ4YXPm7fIKgjInqYLZn/ka108frxRmnesfdm8XQgzIU1rb85G20CEkB8jYWhSysgt+9LUPkgqPLv33t54ZNJ7bjxLHhYINosDlU9WuTA5HM0p/QE9oQ+uue2222wOIcURgcD1IVSfOOWEePGGBNmy5Q1I4RCv5cuXh5UrV2bptX6R/sJE/5mHz5YhozSLUXlROZ1yyhkZ4Uc9TYkVQF4vphtJDI9KtCMS/3nnXmidu+QL0ow4WgNO+k0Ktd1LIHaRPQVdbedsacNnLh289F7SldCRmBEGIhKDZPD2zz//fCMfwoQs+UKVsCD+iRMiYUaSLO8h9/VgS6TsPZlAZL3ebVYp8BzWv2ULQUogWYab8gZDpVSJ3FQ5oicqQb4k7uria9hJBXLOKjETSLpM3MrLAGmt1AxmlV9G/LwBXXXVVYGRTMQxi+cn4dRTtxU8/rSpJ+t3KQ2vzUgfHdmUDfFthsoDu5FuR2vASb9JkSd9efWMIxfhI3xpq6kVsiGCGcH0SinpIxDelLap9tXnxx9/YoQh0qddnknI8P6nTp2WkA/ElpLbAERYcm2p5Emf/8Sn6CnH+0kHXvHGjRvDTTfdVOw3gCj7gzx9hGshfqYyZtw8hMszWDx93M7EsTROlWWAtFYg/WykzkR767j66quN8NE1cbRK/OffY6X9n3DWmefGawcg/fifNy7sRwVB8xVvd3xf4KTfOnDSb1L0R/p0HkL2DJdksZPbb7/dxrzjyeIVq1mnV3KefsHL3bbtHPMyIUcIQ81FCMTPmPPjjz8xeqDT7M2gr2c8ABFWQfo0u3D9vLmLwrHHnGjNOE899ZS9dfAWwlzzxIt4oov+AOlDpFwj4qfDFfJnuoWnn34+XH/dTfYMRuWUi1t5GSCtlTz9CZOtwrnmmmusk514ET95+t9+Q0X7S/jgg4+N+FO99CH9KGaHeNyIP1aMVCZXXnml2czRGnDSr2NAQiIp7Q8kIi228ga5FwITkeHtf/311+b9XnbZZWF2z9wCQUBOha2k0LzA0E2ESuHUU0+zEShUIIRdTogDzUZHHnlU9Pg77V6Npyc8xqKXPCcvVDYJMVpzTTzGGPgsLtn5hQsXhTPO2GZf537wwYc2Fh2C5/nl4lUN8vcSJmF/99331h7OM2kCWrp0qcWXeNn3A4U07rzzOEtn9lVtLn2p5NJq3wAU0gcp/+1vf7OKGvvl08C4+yxu/wufffqZxSe7l/gQfinp974NocesCeyQQw6xD/EczQ/ysJN+HSMlHLxURCQOMGAqWeHPiIkmHLw3tpAFwn/ul/z73/+2At8+ZWpfciiIfQAUiYG3AIYInnDCCTasUs+oBJ5JBy+ralFZIIQjsin3vKKUIX3dTzwOPvhgG/2iuWUQ9CPdjAZUifIm8eCDD5ouNfIpI+/eDuWyaZSUSStC8wurkPEM9I1USh/nNDFe9vxKOu61xW677RbfYp4uhOJoZpBHnPTrGBgIcobMIDUKvwgOyZM+AhFBDmy5n2O6T+HQ9s6xBx54wEaR8FVteWJAsjHqkAOjbG644QZ7S6ACIYxKIO48D48f4icMCFBkWP55BckRIaOK8Hrpf6DpSCRIWngGcSHNpHG0INInDsQFndCkhLeNrrK5c7JRO2XTKMmlFWG9Ajx8wlVlj1QifWwN6dNpnVWQgyN9RhE98cQThVAczQwn/ToHBhKxQS7y3BGOQwIie/Y5xjnIiC1NAtzLOe5HdB3C2HjWWjXSL9P+mwnnMiKCJJh/5tZbbzXi5xkp8oSkZ0FaNB8wLJNwspEwhFl4RtymzUu2XyBCvPoFCxbYxGoafSMhXKWFZ3GsEinWEjyH50uIA8+XrnkbYnQMcYf8lbZMp2p2ybb2LUQkX+mZyu26664z/WJz2RfJp49zHOMc/RdM/obOsgpWzysnvW8jrLVLRepofpBfnPTrGBRkyAQSgcAhAQhGI3BE4gj7HEP4D1lwryoMCIkt97PPdYQDmXZOLSzSYZ2tIqSCFEaPSCAJOhb5apY2fRESYSKVAPHzpSukhCfKM5HsA6zs61X2+eiLeWyYwOy4446zyqnRgN4Rpl7mY6wF8xdb2ugI1xfOCP+ZGE0d6eiWbwRUmaDfSlC+oKmOj7Wsv6QglabBUJs+w3SpKKqd6trRmKCsOunXMTAQxC0PH5IW4UMobCFaeZq6XsTOvghe10L8HOc/W6Yl2Hjo4ZF0Oo2UypFDSvpqosEbvfPOO40sCEcVSiVwHuKnqaejHaLPKhr7eGncpOz50Rue3TPPJh+jzZ6Khbg2GrAF6UUvpOHhhx+PaTo0MH8RadS3Dpb+8Vm7P5XcXXfdVbQpMhDpkw+YNuKwww6zSmPQpB+fT0VDP8SLL75o8XQ0P8hbTvp1DJE4BRviRyicED/HkZToOYfnJy+fcyJ3tlyja/lPuPx/7rkXw4EHHJKRUJ74c6QPmWifcfCMgWf4p55TCSJCmhIOOeRQ+6oX8jMZ3xY6OrrC6lW7h7/85erw/vsfWPwUx0YDZE1aKWSk++effg//+fCTcMnFl4c1u+0RpnVON+KlKau7e7otvXj33XebDbme+ySVwIygVKJ5wh+I9PmYi28YmFxO+crR/HDSr3NAHBAeItJH8BwppBgwvQaBfDknsuQajnEdQvuv2oARjv322x/hxRe2R/LYEL1tmlzwQvmQpzACxKZi6BU7VzhOhyUfMFEREZ7C1/NS9D7vN+vcveKKq8Kmozbbcw85ZGM466xzwlNPPh3T90O8pnToaaNBOpBOWK/2t1//sLQ99+zz4bLL/hJOOeW0cOopp9tHV7xxYS/pjQpD+kqFY5xDGHGzbt16swP2YNEUbJcXs5t11vfacuvWY2yZSfKKKhpH8wM7O+nXMSjkEJ7IXB4/hZQtx9nXea7Vf0hBW45VAs/hOrxGOlvxEjXscKCVm/AwaZa49tprLU7EQXGuRCQQIXHmwycID++fzmHiwX2cb1agb2xC05jSnEIEj6CLVKfomI/qmLCNoZa9/QNU0pA/bw+FeXwiuauDmK2a5hh26x23rQnylJN+HUPeIqQg8oYoKfxUABAB/3UMETlwDMLQsUrgGXozoOMR4mdJwIwo8BD7kr1ElQPEz5hyPH7FsxLpA84rbUhKcM1O+kovW/6n4Hj2dpDZD31iH4SKgtXDmI10r732CnvsvndYs9ueYfmyVWHhgiVhejdz/2dz6GdvYxnhUzljq/POO8/6VQjL0XogXznp1zFU8CEFEYVIHFKFDNJ9ROd1TvdXAtcQBkL7PFMOHHTQQUYWjKIpR/YStR9DLosWLbKmCj5W4vmVnkvaiJ+EOKTSzKQvuyKkPZ9WjmNH2QRdYnu8/CeffNIWqWekDtNZb91yrMnmTceEIw7fHA7asDHsuce6sGjh0tBuzT0Z4TNKh7ULWLRGb4uO1gN5zUm/joGBRPgIBRWBCCABvDX2IQ6OQxTyDJFyXmQ58Bw9i7AIg2GSfPWaTb3AAh/t2bTFNkVyQvwFT1JbxqWn0wYozHLx0HORcv9bAWmaEfSETVV5qwKAqB977DH78KtI+Fu3hs2bjzHSP/aYE8Kxx54YtsT/mzYdHQ4/fFNYv25fewNjMj3m16FZiPAljtYDecxJv45BwRSRy+MTCbAPKYggdByi57i2hIGhqwH3EH42TcOhkcx7x/BnbcilpJ8KXj8evz4uEnE5yfQPkT26oiKXvhD2qUCZ54ePvSD7LVu2GOHL0z9663GR7I81st+65TirALbGY0cfHc/FaxgGype65Im0cnG0HrC7k34dAxKAyOXRQwAifwow59Lzuj4lDRXyakA4jBAirFdf/XfYf7+DbDphiN86CfshfXn8TD2Ax89HRnioioujPFK7pnrCbtgAwmf6CdrxIfzNmzdHT/5wk82R6Gna2RLJ/5ijj7cZQDcdFSuG6PGfftoZ4ZlnnrF+FtmTZznpty7gDSf9OkaexCEGSJTj7GNACF8VgCoDFWgRfrWkTxiEhYf5zTffRuJ/I2w4kInZsoU6stEiBcmRPh/84O1D/CxEzjhw4kOcq41Hq0B2ExmnlTZNMnSQM13G4sWLbVEXdE1HO231jNjho7bZs+eH3VbvHjYeeoR5/kx9/fzz2UdXaf6QHdwWrQns76RfZ1BhR0TuIn729fov8qdAsx0pQA48Qx8B9S6YXpB8c08iTDPMUE4qD+I8VhDJoVPtEx/Sleob4bjOjVScFRcEIk4r9vz5f7/6Wthzj33sIy5bACW+aRWb2lhHoFDZUtEyOod5frATE6gRttJLWGyVn/QsR/NDeQlx0q8zUChV+CmwFFARvYhBIy84JtJHRhI8h2fitUMozJ1THLVTgfQZMkjHIyNGxopkUgJVphehSzgu3ZNOtvwfSRC+9Mo2jaME2z/55FO2FnE2DHOyCRUA69x2dc00z5+KGFtA/qwzzLxITDmtyjbNV0oj+47mh2wvu5OnnPTrCDKQyACix0iQFFsREscRrtN2pECceC6VDMJHQay0Bclks2X2L+PGTTDSZ8ER4j1WENmhR8a5Ex9mpGTWTr4MZsu8/3R2shyh2r9HkhgJG70SJ/YlxFM6x+b0qTAOX0TP1BVLl+5q3v+6ffYL++yzj43Xh+yZAXXTpk1Wycpeyj8Kn7D5T/iO5oc4RTYnXzvpjzEwSioykIidQssxhH2RPFtdJ6IYCUAUPIMMA2HSOUsnLc0KfTz9SEw2LXI8xnZqR6e1R0OixHGkIN2lHrN0xncHTDdAZyhx/8tf/mLzzTPs8aijjrKJypiD5sgjj7QZPamkLr/8cruWj6CYH5/vDghLpKl9iZ4/WHCtbJeGici2Ovf551+Ec84+32bp3HPPdeHwwzaFo7ceH+N/gnXckg6E0Tx07JKOhx9+uNj8Rzh6K+Q5irPyleLjaB5gz1Sws/IU5dhJf4yhQpgKBVS1MoWT/3lSkAfHf+4ZKZBpRFDMEX/EEUcUv8K10To50qe9WaN81u2z3pqEuFekMxKQXtAJeqNZ4/nnnw+33HKLTRtMkxRvJ3ygRJytA7Qf2XnnnS1tnZ2dNvSUexkqycRy27dvt7BlEwn6ryZt0ml6L2lgn+OEzz7Hfv75l/D8c9vDaaeeaR20RvZR2M/+Z6SPMDyTaZz5QI63FnTBM5SXCBMBPIfjOjZStnGMPmTTVFSGESf9MUbeOCIACqQMJZLhHNdwHuF/KiMBwuVZeIusmsWUyhCnyLO0TZ/KICP+ObMXhGuu+bvNLUMaSM9IxVE6wSO/9957jejXrVsXZs2aVULo6ofoT0gTo470FoNo5SvCIkzCZsUx0oVNUlsMFsQXnei+1O7oGbvzPyPmX8K33/4YHn3kiXDKKWfYOHw8/KOj2Ne4hfH6KfGzXCJf7ioswlcFQLh6puKg5zuaA9gzFeUtcYqT/hgjbyAVwqzAZwWVfRXevKgQj1ShJVziQNs3Xr5595EUESPIfPNOJHyGdkJK777zXrHjmYprpOLIM5h7HwJkkXJVSIor22pE6VMYvNmw5T/7tJ9Drvfdd581eYlMBwsVQNlPtpSe2OcaSPnXX+Ob3c+/h48/+jz8/W/X20dYB2041Nr5l+2ywpa7XLNmjX09LdJny6gp2vYJk7DIP4TNPsJzs/B7P9hyNAeUn/IiTnHSHyOosFPwEIyBiNwpmHhqHINUuEaFUwU03R8pEPwvP/8W7rj9H9HLpy0fkqctvyC2rGEm2bJ/k8PyZbuGB/71YIx7ryeJDAcKIyMtmsDwhP8Ir7/2ZjjrzHPCkiXLsgXebf5/vhwmboW4xq0t8G7nekm9r0D6hevifQqDYwqLfY5PntweK5jl4dRTzwivxTj88nNvR5lslUK2Ig3YmGvY1zFEpMwxXcMU0+jxp59+Di+++FI4/PAjwsyZs8KUKaw+NsWmwu7s7A7Tu2eG3XbbPRx11JZI+seH00/bZlM40xylPET47OuZHOM/+47Gh+yqPIhtEXEK9oZTnPTHCBhIhpFBRO4yEudS43HPaOOPP/4XPvzwk3DccSdlbfVReptzIMNe0sQbZkFvOkpp/qglmaCTjPDxWn8P3333U7jzzrvDXnuut8VXeqcTTuJWTgYg/bL3lBUqgSmhc2q3jaS5445/WPMSxEpc87ZCFxwj/iqUOsYWkZePpPlAeYNO6bPPPtvm0uGNg+YnDeEcz0dabVPDil1X23QMNAHdfNMtNnRT6y8QHs/QM4kLx9k6GhfKa9hUXJHmG/ISW45hfyf9UYYKnAqgCp6GCWIcamMRA/85z76MO5rgkQ89+JhN2zulrdMIpoT8EtKk+YOmBubsqTWZiCzRGyNaLrroUus3mMJkcKz2RdPSQISP1Ir07XlZBUgcembNCRdccEH46KOPrLkJG6fgP/ZTOhAdY4ukpM8+tud60ow+Cffll18Ou+++u8UX0qfyYSI8pX1qrIT22mu9jfA5/fRttlaBprsmLPKWnsH/WtvJMfpIOQX7Yk/yD2954hD+K9856Y8yMBCKF7FjIBmHYyrsbBERPsfGAl9/9d9w7rkXZuSa9/KRhDTxQC+++GKLLxmwlmQiPTCe/phjjrUKiPhoBlAIWCRcUWrq6WdfyNrMoxOzjl/mx2G++nwFTaGshvQheK7Vf9JP/mB70UUXma7pUxHh4+mrT4XhnUyzfNyxx9t3FbyB8DzCE+krLk76jQ9sqfyhckf+webKMymnOOmPMlA+RqDgYRwkNY4E44kYJKMFnk+mIQ7bt78Udl+7lxEck67Zp/8J+dHMwBe6bHfddVcbE08auXc4FRXplQ6kEwifsfX0HaRxqCiRCCdP6rD5adiyfKA6ZtlqriCRPpUbi8QbmReIffw45reZauRa9hlIjBPh8bbDpGh88EUBU+HDziL41LY6hq7IA/rPvRxjH+F6hHvR8cqVK22pyiOP3BIJflOYM2dB0T4svn7AAQeHY485zioI4kI8CIc3SqC8h14VN0djgjyBHbGv7EpeEaeQl9L846Q/ykDxFGYMQQHEy8dIOiZC0HUq9MhogWeRYRiZcsftdxphIhBofj59jWhhDDwfNomgiTvpGirQg/TCFsLnwyPImTl90jgMJJC1SfSCp07ttLgyfQH9D3jMbJGurm5rHoH0qSBIr1UWUXb6vwl90p4KU05QeSBUKHwZC9mqQJKGSqTPeXTOlv/SIeeRNE9wP0NHGaXDFMqM299w4KEWX2TatBlh773Wx3PZaB7mTSKfEa6TfvNBeWUwnMJxJ/1RBgZAVAtjCIyEgdjHSBTOcjJa4FnE7ZNPPgnHH3+CNR1Y00kklLynDwnjLTN+n4+XuA8hjcOJswiOTExn5Mknn1ysYGwZwDQOlSTGmY7eeXMXWSfngQceZJXT9ddfHx588EH7UpfJye6///5w3XXXh9NPP8tmFF2x625hbvSeqQSoMNRvUPYZUbJFyHubjmh6Yby8pnUQsaITFUL2ReqICij7+Wv4L71yHf0mrHVL2z0faR1xxObCG0ok/c7p9vXu0ZH0mYb59ttvt3gQlpN+80FlRW+ViDgF++Y5xUl/hKCCnBcVZhVeGUnNKexjrHL3VkK56/uTgQAJEAeWTVyyZGkv2cVtvolDTTuHHnpokdx0/2Ce1R8Yn44wtfMll/zZvHskI9e8x539z+JGO3v8H6WjvTPsunxl2LL56HDLLbeHHTvei5Vt1nlO5teWeBYLRXw5YYjqBx98ZMNUN2/aamEwLNKGb0YpDgdNJFuPNnr7MW4I+wxfveiii8NXX2UfcumZsrmeLT1xjELKca4nf3A959lyTsJbGNNF2KpZx55oyyRC+uiBidjWr9vfSB9Pn0qOtw7CxEYKj/96nuLRn5huCtc5xgbSfWoXhHwDdwyWU5z0RwAqICpYMoiEgsaW8xgpPZ4aqBroeXp2XggzPa8MUE6IC/GiE7BtckqufUVt43ylyn21Ah8k/fLLH+G+ex8wb5vmFknfYaMZ4VtnbjxHEwsfafF2gBevD6gQ0j5YcC338nUrXrs+/NJXu6WSfwOiv2Nq6Jo2I9x7z7+KhZGtiBt7SOeA/2kTj+7RNRznGIWZeL300ku2ShYLprAwuvQyY8Zs+4DrmMLKWcwvxFsN93CvdIG9CF95opJwnfIp/x2jC9mBPCDbpUK+4LjyiI6LUziufOakPwKQYVA2khYyFXgVaI7pGhk1NdBgwb16jsJIRc9C9Kz+hOsZZ3/KKadEgmOqhYTMcgIJ7rLLLkYohF0r8PHVG6/viGS2MiPyCqQP2TOCh6YnmnIOOeQQq7AY105aUr1Uo1fpjXtJH2Fu2LDBKjkWMalE+tlIp+jxRyENvDURlgpkanPFiX2Oq0LgPPvpdTpG5YDXfsYZZ1tTDl9B0/HMcxcvXlYYq89bwLFhjz32sG8nmF2Ue5UHlAf1LLaVhGsUb8foItW/bKD/2BRJOSUt59yb5jMn/RGACq+MgwFU2BCMo4KbXodRUqkGeiZjsj/88EN7nU+FjlCmUmA4IW31EEB/wljzt956y0aIDDSMkXb2c845x55N2mqF7779MXqpxxuJMaVwJdKH7JDp3T3h7LPPt5kxU52rgEjHgwWFRbZBsBfj3mku0QpW/ZF+RsAdtmVEEEM5qTjSfEDYPEP2xoaICi/7PJd96Vf3IVz3l79cbR23VHyM3qE9f9/1B1o7/zHHZBOyUSmvWLHCOnRTG+/YscPyhPJGPs+kkuYf2osdo4uBOEV9hIPhFCf9GiBVqgouSscYIgsMQiGVkdLzKvjVgOtT4zMWm87Ik046yeZhYXbIVPBQDzzwQDtH+zuv/P3JQQcdZNezOAft0imZZe37tFlnnZt4vHwwRFyQoYL0oAfp5P77Hgg9s5jcrd3G5GfNN6XNOEWJ/7u7Z4W/Xv338OknXxRtIA8nlWr0rDBkV/SM0LHMFM0zZsywpiRIf3KfZjDa/7N9Kq6enh6bDI70ESZpJCz+E74EcE6FV9dynQqz8g7b557bbm84jDKiclm1co2tm8uauccee7zZfObMmdbZThMV8UYYXbT//vvbeSSfX/Ki68gbvAHSnIceSAO6cdQWaZ5Q3pXdkUqcQp5Rvi0HJ/0aIDWMBIPICBpCxb4KumSo4Jl6BtPoUpCZCIyOVbzvSlLqofYVmmx6R6KUevoiMiOzSDTz5s2zdmLiQxqHCnSGPsjEjDQ58ICDjezLdR5DqBAdZArZdXfNCldD+J9+GX74fuQWB4F8RcBUsldccYVNwZwN06QpJx9PSfY9AKTJfcojhIMNVUB1nH3pgvM8UwU5FY5/H9PLylr0HTAJ21FHbgnHHH2CDeU86qhNNqU0tmRoKhU6bfzMFkqcy+WNwQhpoX+DjmTeGIiLo7boj1PIF5R5yhx6Vz5RvkQGgpN+DSDCQ+EqoBhGtTAGombmv4TzwyksKTHgQWrKY40TH0i4rj/RNeVIX14++4xb50OklJSGCjI1aSFjM8Rw3ryFRvYQe745R89m294+LVxy8WXhk4+/iPr436iQPkI8aeq48MILTWd9OnJLhBFHk2xlq7vuusvSqkKtgqxj0iP/2XJeeUfX8ny2VvhjeredcU70xg+2aZche4Zx0rm7Zs3awJq5EPXq1attFlI+buOtI63cByNp/tC9LKZz9913W1wctUWeU5BacYqTfg2AgawARkPIACifLQZiX4ZTYeXYYAzUH/RMps/lq0s+LkoLZEbYvZIW2nLnU0mvyY+Jp43aSD8Kbch33HFHCXENFeiC9NAngUdKOz5TDPCNAM0WaRxU8XCO6QZ2vP2ejfb56cf42vvDL4UQaw90Ljsi2Jd2cTpLByJ9dEoHMKTLmx+6QhQOWz0DUSWga9Avgq65Hl1l+voxPPvMi71z7EfSZxgnk8B1dNC5m3nmNOUwNTYVT2bXgd/4UiE/SPjP/eyfeuqp1kfgqC2wPbaGU2Rz5RVxClvlDfKC8spAcNIfAtJCKeNgDAzBcf6jfPZVOFVoVWA5N1zwbEaF0Oa6cMEim/HROjUjGRox1kSyikQyYcJEIy+RCaRHWkjbcNIkPfKxFB2PNhZecSi8WRQFgo1xoTnr0UcfK1aeMYj4Y7sjDuKrwvbII4+EFbtmo4yKX+2WxDnTF01vdKgyBJT8Qbwl5As8N/aVr9BnKjqeniOcjz9mFtTjrLMYb37PPfe0Zid0RJ8L9qI5hiYeHRuQ9Iv27yt8q6AKgPV5mRbCMTzIprIv+UGcgohT2E85hW21nOKkP0TIODKIthhCW4wgI8mIHOeYzg0HhMGXmatWrQpdXdPD/PmLw9SOrligKZwp6QxD7OOjXjJI3xhoz2fYIPEYbnrI0OhHk4nZc8vFJwqkw/O5VsMyRxvYXrZEBxddeHFgfh76GMr1QWhsP2kj3uQJ5QPCYssxEb+O61mpjrXPcfTG2xEeN52zLKqCbiB1nimPXFsd45rUrn2kQh5KSZ/hoDgejuFDNsXGlAX+izNE+soDeU5RnuDcQHDSHyKkZNW+KJ5OOhlIBZgt/7lWhZetjDsccD8jZyB9vlbt7Jwe5s1daGPVyxXWIUmO9FXYIQ2aYdJMR5qGCu7/8ssvbXFv80IrkA5NTkwv/PTTTxd1OxbA9gjpZ8ESpjS2N60+cc90iN54O6KZhc5q7sOGCGlACI98I8dB5/K6VV4if0H6jMxhNBG6M/0V7MU+RC/hv+yna8qKk/6oQ3lAdmdLmSBPpJyifeULbRHuGwhO+gMgX9iAlIugfIzDVuOwRfYQIgZjn22+AJcLuxoQ3iuvvFIgfQpkm41kmRuJn69YewsqBThXiPFG+5PiPfzPCEtCQWdLB+Ftt91m6SIdabqGChYzX7t2beFZfeObkSkjYabaYiJ4+eiYZ48FeK7ywTfffBfOOfv8wjcF7RbfNP40sUh3VFjPPvus5RtEuku3ylvkJdLIvp4lEuAcbb4MnaRDleYjniHSL1cBiKx1rH/J9N/3rcVJf7goV044Jvtia/IFNs5zCvvD5RQn/X6QFj4pVSKDyDgidwogXhcio+i69P5agbDw9PmIyuakgRjHT7Yx63j8aurhmBXeRNKPnfKSFfQsPJYFpHDjGSLsM0slH/288847NUsPOr711lttRIiRjiqdgkCk6qvYZelyGwUjHddSp0NFjH4k3vvD0iW7FvSXStYcJZk/f3645ZZbLP7kr0ogbeQxriWfSfjPcRGAvqBmTD7kLlsNWQqkb81VudFTTvpDA7YsxynsY8OUUyD5cpySco/uZVsNnPT7AYpUgULRUi4GQ+kqiGxlCF2fnleFwL2SWoGwUtLPvMussHZNm5k09bRZBbBgwZKwaOEuYe6chWH+vMX9CotwMMPknNnzw5w5yBybux2yYugfX6RC+Jq8qxZAR7R180FYOdK3Cgjij8c3bDjEOpCV+bHNWIMovPfuf2yGznzc86RPGkmr8kklHXKO9CHlHBAdR/gSm0Vs9t13X1vbYPHixTZOfyhCHkDfJpH40/Q46Q8N2Kscp3As5YyUR7Cr9sUzOq48UC2c9PsBykyVjGAkGQils+W/9nW9tjIgYcnAtQThlZC+kU3B449bPslX525318xww/W3hDvv+Ge4+abbwi03396v3HrLneGmG2+N198crrvuxijXmdx8883hmWeesb4LKjPSWCvwGssEaRB+6mn2Ek1GnjRbsRh5OjwW3Y41iMJPP/4Wve0zbB6c0uadUtInjXw5jXdOXqmULzhH/iKNykMI+zpOHtN/9MJomvvuu8/ehmj2GYr8/W/X2QdfFnf39GsCbJRyCvygY+IKjvfHKVyDcE55oFLe6Q9O+glUoKTQ1AhSuJSP4lMj6HrOIzKcDMNW+7UUdeRmq0mVEj+Cxw/xL1myS/jPhx+FX3+h8xGCgEzKS4xm+INtQUiHhHRJH/wvF6ehyH/+8x9bJKXYNFGG9Gneob/i6quuMV1K1yOh16ol6uz330K46sprbPqIUtKP8af5rSATxk+Kad0UPvjgPzH+5JEy4SWivJMX2SR/LJ8vhyLvvPO+pSNrUsulpQzpl4t3PYuQ7o80sAdlB06RncQV7GuLyA5cV45PQD4tg4WTfgFSYCooWB6tjJSKjCTiQfoLaySE5xVH75in31sws1fzbOEPvHw6SJlojTgr49STvP322zbfDyNMIJPyQzbbwuJFy8Ld/7y3bBhjKZg+ZpEYt/tslss86acCkR580GHhrbfeDb/9yr3lwxxNUf7VPmsPzKLyKjgQafwbnfTTtCKjBZ4Jj8Ap4g24Jc8p8uy5HtQ6jk76BaSZQRkCA2EAvqCkY0XEzzEZTsTPNh/GSAvPK23e6S2YInzaYxE6SPl6V6Rfb8IopH322cc8/XJt+jRXQT7LdlkRnnn6ubJhjK1E20fSf/LJZ2McV1p80/inwgdc++yzX3j5pX/b24HdWzbM0RXyk/LwjrffzUifPDRA885rr73WJ6x6lzStbEcDPEccouZJkTz7Kaewz7UjASf9AqToVOiohOwR2rFpd2afSoDedP6zj9EwItvUgCMtxIVhjnTa5RcLh3QorJqJctasWTY9LveNZhwHK/QVQCA07UD82Re5KdFk212XrwovvvhS2TDGUn744afw/Xc/hxdfiJXwit3KNotISAvTJDz5xDPxvl/CTz+OvT3IS2yVN958c4ctsE5cGcFTGv9S0sfxSMOqd1Fa8aYh1tEifSoYPVeckf6X8B/yl7df6/g1PeljVAidLcZGmSgahTO/+GWXXWYfBDF2Go85FT5nP++882y+FKYGoBll48aN4fTTT7epDzRPOddqq/3REJ7FCA3GZ0/ss25s9DQLRGmv6LGA8in+mjVrrBmFtBEGFUY+3EqSXs/z+c/skfvtt599DZpeW40sWrTIxv73dnbm31yykSQd7V3x2qVlw6iVYOdq7bhyxSpbV5fRUdaRW8HT5xzpWLhgqVUQK1fGe8uEOZayZPEym/OIaavzTVWQvuzEdA+M9ikXhiTNM+vXr7d5gEa7rKSiZ1PmKfvMUMv6zvCDPHF53EitQFjwjsifZ0DyPFfEL8JXZcC1tUZTk35K+AhKRJk33nijZUS+jkQYQkcGlvcioUmEhaXTLx1ZPAPCJ/OoKULnRlOsCUQjXUwqkwzp0wdCFFSmUIBk9ZXmYEXP0/MZyklYms9lqEKYIhKkL+kn3xHQGVomjFoI+pBey53vT7L5gCIhFiqnPFGmgvdsb2Ei1InVPWs0ZPKkTOe2dkEF0s9sVbkMSKd8Q8BssNzDceWh/PUjLbIvZR+HifJPWcCJ41sR3vDlddeSdOEgwsRzp4VAlYoIXhUNzxRnsV9r4m9q0ke5KEzKZU1RvBIMb95xwfjKeMqECBkVcmQCKwgeUkOYzZKFSPAUdG2aoUZT0rjnZ8MsFbz+bKItChz3kckpgGT4fLgDidItwv+///u/YkEeqhCeSASpSPrxXLkwaiHST7WVoUifZjVm/6zk6XONPjTLCLX+SN+acCLhZzrnTbI3/tWSPucpN+QVTdaHfnfeeec+146G8GzZV3FXBUCccAiZFE8kXCvARZA7ZC6iR1IPn3MA7hJ/6Vit0NSkTwcZRmM8NM04kDeZD8/K1n41g2cEz7E0IyM77zzOmkMYSrjrrivM86dZ5PDDDo+vv0vsfq5jdSmIYixloKl9iesk5sYvpJP9rCDOt8pt8GnI0tvTkxG+Cg7nCLvv9YOVUt3317xjHnL0QsuHMVyZbG9yfITWPoXnlLumvDANBh3mkHi5JpESsWsKYukZ+/yTF/RP/NB31qZfsIfFu5T0K8Wf8yL87MO7eCxez5ayV+6ekZe+cWbuqiwt2X++Or/qqqvCt99mEwqKhIcD7ofYRe4066gvUOSvZ9XqmeXQVKSPglAmRM/2l59/C598/Hk468xz7UMTMu+ihUvtY6WsAGYZG8kKaZaxM0+MppCMZNau2SsS/VHhqKO2hkMPOSKsWrU2egadmbdm9zWgxHiTRubqmTd3kbUxk/7MS+29Tl4p12ra4Fkz54Q5sxdkeivorDkkSwvTWPT0zLM2bUt7PJ6ltfTa1Fsnf03rzD5m6s1PzSJZvqBSY9Eaq9TicdJZroJTXqH8MFw4y1/TTI+NoZc24wq+Zj/rrHNtbWB1/g7X85e3L+KXqDIYKaJP0XSkj1EkX375dbjg/Iuj9zazaEwK8vx5i4zsihm2kBF7SaxXRHjTp/dY5p0xfbZdxwIf2fkodm0WRkNIMc1ZGtGPTdkQC2Z2LLm2cD1ppAKcOWO2DeVDdw2X7gGll8hnRHvPmjnXKnc7bmlN05v9RyeQ/Zw5C6IzkU5y10yS6QVdzO6Jb4ZTp1sZKC0vpddzbrrNAbXIOrZ7m7zy19afWFwL6evumhEuuOACWyhG7fFDBfdC+nCTPHuJKgFdM5LE35SePkKtfPvtd4aF0bOHmCFpeSBkQjIjxC/jFjNxFBu1EAvz+HHRu5mk4WqEkXh9URReI2TkvpLFm7SQpmnRU2Wt1czjL72OAo8+IEK+0sza1bP0N2ba+xOlJUsXHv/s6PEzT37ftMb9qAM8fK5RhUllSEXAud5rG12yPGD5JFZwGfF3Z+WgcD693jz8qDub7TV6y1aRxmut/Jgee6+tT8nKBfGlKZERcnTwasWzoQJ+SkldXIXoGNvhPGMwaDrSpwalJuVjn/33P9AKoUgag5JxyXgQP5kSD16FlG3m4c0ptmPqXruvIKWZPCv8Yy6FuIicjJTTuJZcWzheciz7cpe3IKZuML2hl3i8LVaC5uFHvdjShYXrLfw0jAYXdGb2LujH8kNMNxPPtU/pbZ5Ax+gHfWUefqwoi/cn+a2JRGlHJ7wZMiEfWzkA6Etppwzx5ojOsuOpXkvDHQtRfDLpW0Hb8ZjOLP9n7fyM2GPBIpGzpFpUum+oYVaLpiR9auQrr7wyFsrpliklJcaN+7TZkXkhfgoupEZmxXuzL1mj0RtFVODMKyfTFjIu50RgAwnX8UrO+HERP14u7dsZ8XXasXL3NqXEPEAlR/rJF5k3nxEFemK2UiaAaxWdKF+xb02C0UFAD1a2CnkMXeE4GOEXrq0/iXaNeRnb6q2+yAt5oUM7kj4d/FdffbVxS+qZNyKakvT5LJwPkBjPXYn0yQA0Z9DUw3wpy5attOmHe2bNswqgkQTvano3lVe3ET+vpsyyiadK23S5e4oya65dxxeY/EcHK1euKUzUtty+gqVy5Lo+9za5oBOab9DDihW7mQ7IK+xDbqYz9NLEuiGNrMqWeept1rQzc8YcGxSxYtfVRv68CfJB18oVa8xBwJHimiz/lQ93rIT0UF6omOAAKrISoi+RzNNnhNpBBx0U3nzzTeMZiN9Jvw6AEegQYWpYph2Y0tZL+H1IH4n/8fAP23hkuPPOu8Pjjz0VHns0Stw+/vjT4YkGkscefTI8+sgT4d57/hWuu/ZGk3/d/1B45OHHwxNPPFP2HomlmzQ/lv1/9JEnwzPPvBCefur58MzTL4Snnnou08cA4TSboBPplf3nn9tuOjDdPP286QTdoTfprhmFdP7r/ofDtX8nX90U7r33gUwnUTdPPfmczTeEftAL/znOPeQj9suFOZaCrR584JFwzTXXhX3XH2Bv/CW8UCL0R2RDs+EUuIXmY3n7jYimI32W0Lv88ssLY++zDiQJ7fSq1anhOzunhRNOODG8/vob4YcffoxG/F/4HxIrcKvEG0gU599/4xNv5k/5Ofzxe3wFjekpd30quldpTv+nkr+v2aWY9lyeKB7PSf7+ZhHSRtlQvvqdfFU4nuqmPykX5lgKcSIN33//Q3jrrbfDcccdH6ZOZYQRH6XBGdk3J72SfU/ANyksUqPF+GlVaEQ0FemDjz76yJbyyz4aigZMam3rnCm0fbfFtwBmdWQSMoZMYUSHw9EawEFUMw0rjjFxHMSeOYu9X+ZLdA5ugWMgfCf9OgBGpM2NCZ14HRs/PhosJf1I9oxCQGiDvOOOO2y2TL6K416Hw9F6wOm79tprrflmp512Kkv42mdiwbfeesuakZ306wAQN8Oq9tprr8xQuflojPTHZ8sIrl27py3+wHh+xD19h6O1oBE4kPerr75q00WkZC+BSyRMw8JwcCf9OgKTqjFhUjaPRu8YYbx7mnfouF2+fFWYP3+RLdEH2WN49/QdjtYEHMDKbXj65QgfLpFA+jiWjcwXTU36NvNkgfQRxp4z3znDz2bPnuek73A4nPQbHSnp2xjbSPaMLebzcaZk4GMaRvEwlthJ3+FwOOk3OFi6rYT0JxW+HizM9EfbPl9aOuk7HIMH5YM2cAnlRuPVJTo+HKTPUbnUvp6jY7UCYQ6W9Bnlk07H0IhoStJn3nwMxLzfdNrOjgQP4TNc00g/VgTevONwDB6aGVJbphpmof0dO3aYfPHFF8Xph8FQyhP3UB4JnxE1bFkL44MPPjD5/PPP7bjiUCtUQ/osscgX/9xTy4pnNNFUpE+moXlHpN/dnc0IaBNiFUbvOOk7HNUDkhUZQ/D33ntvOOOMM2yBIWTbtm3hnnvuCd98802xPFVbrriWUTEIBH/fffdZuJs2bbJn8Dyey8dRXFMrVCL9lPhZ9Yshm2+88YbdgzQimpL0WcqQ4VezZ88tEH42Nt9J3+EYGjREkQ+TmMyQRfBZYpCPIPloieU3WXifr+G5VuWpmnKF58ybwieffBKuuOKKsGzZMlvCkPB5DvtMc/znP//Z3gBqhYFIX4TPGr+HHHJIkfR542hENF3zDmNoGaefrf/KAhhZRy7ipO9wDA0QOc03999/f5gzZ455v4iIUWvfQpxcQ7mqtt2ba3kGHj5Lk6pJhfDlbesZ//jHP4x0eYa2Q0We9NN0KW1a1H3fffe15p1q01ZPaDpPH4NgGNa4zC8W7qTvcAwNkD5e/nHHHWfEm5JiXhjhwluBytZgwbV4+SeffHIf4kU4xuL+bCnjxAnCVwUzVORJX89CqGhmzJhhhM9a0j56p86AIWjeWbVqlRnMSd/hqA0gWKY4UdlKyTgv3d1d1u4v4q8GEOrataxBzfxYLNzSG25WprMKh4XWKb/qaxhO+c2TPs/Qs7q7u8PChQuN8KkAnPTrDBhi+/btNmSTTNNnwjUnfYdjSKCtnTlnFi1aVCTh/oS3bMpWtRMZUgYZfbfbbrsVm3VSUfMOQhMTbessakKFVGtPn2excAqE39HRYf+d9OsUJR9nOek7HDUBpM9slHRk4gUjKQnrPzJ//nxrm8cDr6azkzJIxcJiJZrtknC1T9j85w2ADl0mS4TsKcPDIX3u5S0G0lenMURPBcezlC7ESb8O4aTvcNQelBOGY7JkYFa2smYQETPCf96wL7nkEiN7SB8vfLCgDOK5//3vfzfSTYleYf/pT3+y7YUXXli8R2V4qOB+KhtIn+fwpkJHMs/h2SJ8xEm/DuGk73DUHnjuNNdAeJs3b7YhmhAixCxyxiumg5XhlFz/3XffVU36VBR43Vu2bLF2dFUsyM4772xNLuvWrbMPw9KyO5zySzg8kxE6PJO3CIaH6tlO+nUOJ32Ho/aQ1w6Z4xWfeeaZ9j0MTSC0e/NBJKNuGH2ja5FqmndoZlFlwSi8s846yzqO8boRnnHCCSfY17mEzfVILUifNEH2pIXKC8JH3NNvADjpOxwjC8oKzTAQM2PyGVdPpyqEXY1nPxBY3IjvbngGQtnWM6qpTAYCYb377rvWgZwNAOntPHbSbwA46TscIwu8a7x5hCYfefX8ryUZK1yFnUotnwMHMH8Qw0DTJisn/QaBk77DMbKA9CFdhPKjfY7zv1ZIn5En/Fo+h7A0eiclfCf9BoGTvsMx8kjLjPZrXYYUptrtKasie47VCoTJOH06cp30GxBO+g6HoxqI9N3Tb1A46TscjmrgpN/gcNJ3OBzVwEm/wVEN6fNZOQZPO6LqUchg5Y67uOSF/Kyt9ltR0jIzkB7oHGbIJrNp6ktgJ/0GwlBIH6OXywxjLWQsFV5Q7hoXl1REcK3uKKAHEfNAusDhw9OH9CF5J/0Gw2BJv6dnrn2Fx6RNzCnCV4D1Jooby8Pxnw9i8te4uKTCFAjkF/JNvebr0RDKzmDLNtcxu2dPT4+TfiNisKTfNrnDVrZnla299tq7IOyPleSev2d2bO+99wmHHroxHHTQwbZfco2LSy7f7LvvfmHjxo1h/fr1JcebX8qXYWbsPOKII/scT2XPPfYMa9fuXph+AbKH+DNx0m8AVCL9EokVAMRfDzI5ypS2qSX/qZimtHWG2bPnhwXzF4eO9q6Se1xcTCzfZDJ9eo/lle6uWZaHsuO565tV0IMk/qc8dXfPCkuXLLd1svtcn0hW3nol5YlJE31q5bpHNaQPsdaHdIRpndND59TumAmzTNs+pTP0zJoX5sxeEPen2TXl73VpZZk0sd3yyrRpM8L8eYvC9Eh0k+ycSKzvPc0o6CFLd/YWP3PG7LBgwZJI+N0FUu97T6lIX076DYdBk34UmnvGXGKGI8Pinc2dyyo9XealzJw5JxL+fCvQZETL1OXud2lxaQ9dBcKH+HUcImu9PJMRPxXfvLmLjPAzHVTWg5N+g6Ma0q8PabOMOmF8W5gRX8/nReKfO2dh9PLnGuHzRkLG5DzXlg+jCSWmWfukv+RcC8uEmAcQ5YWurplh/vzF9pZo15iulE+aO7+U5otYjiK5Q/g4Sx3t0+yY6WOA/JORvyqH9tw5J/26R6ORvgrwhPGTzcNftGiXsGyXFea1ZRmZ67Jryt3fvEJh6yhWhuWvaUXJ8gH5hbfBxYuWmXOQVgQtI0bW2vLGM9OaRI3wrdwMX5z0GwCN6OlnBXZKmDFjdpjdM88Ks2Xeji47j7Set5ulmbZZ3n7KX9OKkuWH6d09YdHCpWGX6CDQeckxKoLy9zSjFMpNgfTx8Bn0wIAHne97T/XipN8AaETSHz8uem0FwqcjF7KzNv45C60T165rMdLPCH+ONV3wBlTumtaUtpg3ZhbarLtsf+GCJdYWPb6lSD8T3gYZpWMDHtSkU5Ty91QjTvoNgEqkj2cAmSCZVzQxeknx/6RsPO5YyORJk8PcufPCvHnzY6btyI5PZGxwW5g1qycsWEDnLkPRiGe2SHRzCvbK9tnOnDnLdJItTt3M6R5IMr0wfpw8PX369Ej4vAWyRm1GRDNmROJfuLCoK441v85Ykzc6BjPp01gQpk7ttGOUnfLX9y/oDf0i48eNN31LsrLopF/XqEj640tJf9y4cbbY8k477RS9pPHR6Nm6mKMpZFpW7OH55eLAp+Fz5swpZMzSc80k+vqRfSa+mjt3rv3vTy+tJNJNd3e35RXygvSCkH91jnzPMfJ2ubCaRdAJ8+SQT7SI+VAFfUlvGW/4F7kNhcGSPqNjnnrqKVsxh+kY2DL/xmgL8/+wvujrr7/e5xzxQt5//31bzi1/vplENlB6dazZ0z2QoAPyB3pAL++8844d03nyDXpDOKfz6TXNKsob6Gc46UV3Dz74oFUgfJXrpN9gGFzzTnv0nhfYzHqsv8nkTGM1yyaTvREHns82Pad4aZm49FwzCgWJLWkl3ZJWSPtAorzANs0X5BnWqf3pp5+Kebnc/c0oWp9X+aXcNYMRwoHIeevG83fSbzBUIn0Iny0fY/h8+g6HA8ABePw+n36Dwknf4XBUAyf9BoeTvsPhqAZO+g0OJ32Hw1ENnPQbHE76DoejGjjpNzic9B0ORzVw0m9wOOk7HI5q4KTf4HDSdzgc1cBJv8HhpO9wOKqBk36Dw0nf4XBUAyf9BoeTvsPhqAZO+g0OJ32Hw1ENnPQbHE76DoejGjjpNzic9B0ORzVw0m9wOOnXP6TvetR7tfEpl46xTFMan7w4ysNJv8HhpF+/0Pzl6BxJ5zSvB/0Th3zclDfKia6pl7Tw3DQumn9fW0d5oBsn/QaGk379Al2nAjGx1QIYYw3yQH4Bl3ycy4muE9mOVV7iuYpPqlsWGkE8j5cHenLSb2A46dcvWN3pm2++CV988UX48ssvw3//+187JpIaa5AHiA9x++ijjyx/sO1POP/ZZ5+Fr776Knz33XdWYRDGWBI/z0afP/74o8UN+eGHH5z0K8BJv8HhpD+6kO4QEQ7kZ8v3/fxr+PjjT8PDDz0aLr/sinDSiaeEI4/cFA45eGM47LAjwhFHbAonxmOXXvqX8MC/HrJrf/0lesy/h2I48rxHCvKCie/jjz8Rzjj9zLDx0MPDQQcdEjYceHA4sF85yOSQQw4LR8Z0bN68NZxy8mnhL5dfGe6991/hnR3vxfTjZf9uW+kEIc/VCoRF2GwRKp9HH300nH766eHQQw8NGzduDKeeemp4+OGHw/fff29ppUJg68iA3pz0GxhO+qOLlPARCAjPEjucd94FYd26/cPSJcvDrJlzQtvkqbY4/fjx2CZbqL69fVqYOWN2WBKvWb/ugHDxRZeFN9/YEcPIiEnEP1IgrqyReu2114alS5eGjo4ui+fECW0xfpMtjv1KvIbrEPJUR0zL9O6esPvavcJBGzaGo47cEq6/7qbw3rsfGuHyLAi3lpWYSB/59ttvLR277LJL1Gt71PN4Iy72lyxZEi6//HKLg8jfkcFJv8HhpD+6QH9qzmD78ccfhyuvvDKsXLkydHVNjwTaEcaPkx3aYiFqty2kyT6L1FMBYJMpbVMjac4Kq1auCX/96zXWzAIhE+5IAfJ76qmnwowZMyI5dlgeycieOLOQfhbHPhLj2xbjO3lSh8Wf/8S/Z9bcMH/eotA+pTP+7wxz5ywMy5etNM/7zTfftOehs1oBvVOJoKfHH388zJkzp7i4N2WgrS1WSgUCmzp1anjuuees4uF6RwYn/QaHk/7oQgQG8bzzzjvh8MMPN3LBu5w8Keo6kj6ec0b2kVALhJ8RavZfpC/ihzDbp7RbWB988MGIeqWEfdBBBxlRTpgwMSN7SDwSO9s0/5RImWumT+8Jc+cujB5/V/EY6R4/blJ8g+gICxYsCBdddJG1s9cKyr9ff/11OOaYY4ykJJQBbSF/0rhhwwZL80i+PTUanPQbHE76owt5jW+88UZYvXp1Qe8qNKX6r0YmTcoIiyaX9957z9qqeRZt4rVsHoH8pk2bZvGG9KmMysWnr6RNPJHw4xuKPHw7X1JhtBVJg8pwjz32CI899pilBd0RB4iY/9WSMfmXMMjLixYtKvHs8wLp80aDLlVZO5z0Gx5O+qMLiAo9Qs75AjMc0oeAseHOO+9sHvJbb71l5IbUkrAIz95KKNSxoikXl/JSeGOJeUqEz1tK1izU91qRRpYvJ4aZM2eGv/3tb+Hzzz+3OFCRIUMhfe6jYkRPhA9RIXl7cIy00qbvnn4vnPQbHE76o4tPP/3UCgLNF2pL7pVqSLRURFyEiS333nvv8P7775tHXEtPn0pryhSaoSDL6uJLPuqaNtMInw5g6wuIBE9zjt4AMiklfRFJZ2dnOO+888KHH35obzHy+KsB/R2kgSajffbZx/SePie1B/8XLlxY84qz0eGk3+Bw0h95SF+Q74UXXBi98XHmmdMROnEiRCPBBpAfHnEmk4pb7FE4PgE7sU2kEAbeN+F3dEwNZ555Vvj+u+9rSlgi/ayQx2cm+SWLB+cKeSeJL/+nTZse5s1dGKZ2TDPCV3om5NMTj5GOokxuC21tVDRt8dntNqSSvEhcIORqgC6oLPDeeXPAkxdRsU2FdP75z3920s/BSb/B4aQ/shDZo7cXX3zRhluiVyO9qNdU3xMmQNy9BUgFh3bnYpNKlKwTNfeWYITZGxb/589bHB55+In47EJkagCGMPKWYoW7j6dfGGFUlF7vubu7O8ybN886rXUMYT/9X5QkXPTFqJ+iTJ4SzjnnHMuPtLcPBXj83M+4fOKkuEjHxPfAAw+0twoqF8SRwUm/weGkP7JATxAMZHnEEUfYkEwIEZ0iqb4hfcicgsOYcYQmDchShNm3SaggOdLHdu1TpoVNR20N337zfSE2w0cl0s8qsWwMPuQ8f/586yxdsWJFWLduneUzhkhCFqQry3Nl0oKk4eZInzcMvPCrr77avlKuBsq3bPH4X3nlFRseunbtWosvet5tt93CySefbJ3tfBGtTmNHBif9BoeT/sgCPaGzF154oVBI0KuGLuaJOiNByB5yPOyww6x54brrrgvXX399uPTSS+1YOra8KLmwNN5/xa67hWeefq4Qm+FjINLXh2S80RDvu+66KzzwwAPh/vvvD7fddlu45ZZbrFmFoZgnnHBCWL9+vemF8ErTk4SbI33rS4jX0Ln74IMPFmI2OFABK++yT98AncNPP/10uPXWWy1+zz77rH3zANFTMZDmavsOmhlO+g2OSqSvtllkzpz59qrrpF8dIBaadyA5a0ZIydl0294rk2gemWT2gBhVySKQD23LdM5ec8015j2rYBlh5kjf3iJi+Hzxetllf7EwFBe2Q8VApJ85ClnT0mefflbMJ2x5rgQShVhfffVVI9qtW7eG6dOnG3FMnBDJo5DvrLPX2v978yJt+1xHxYdXzgdu0hNSCWneZcv16ERNcBLpKd13ZEAnTvoNjIE8ffOuotc4u6fX06cANLIRRxPoCm+SD5psTHiO9FMPlrZqmhduvvlm+3gor2PIB+JnwjKuWbZsWe848xzpy3ZUJkcdtdkIVqNdhkNgFUm/QMq8ZazYdbVNFNcfSJvyEfHasWNHuOOOO2xEDWQ+ZUpnDL897jO6J++MlL4V0DyDXtAPYTlGFk76DY5KpA9pQCYQx667rrKZEuX1OOkPDuiJ4YHLly+3AlGJ9NundBQ7KCGxVMfso3sRG00SjGKBgCF+GwmT2A7i1ZvaunX7Wvs0hZV7R5L0eSZTK+y2evcBSV8OBEK86JR97bXXwsknn2Jj+DP9ZP0E6XPypM8HVC+//LKT/ijBSb/BUZn0o6cVX61nz55vhdg9/eqBrmjCYLz3QKS/dOkya/9WG3JexyJthPP33HOPfeSVkX6v3WQ761iNx1evXmPzzHAP9w7HdpVIn2f2zJoX5s5ZEBYt2iVWdp8X7uoL4oCI9KnkNPYe5+L88y6yCdmYryfrIE7SlyN9OnU3b95c1ItjZOGk3+BISX/C+ElR+HKSwpx9Mj+HArxwqY2v9o7c6gGhMXUvo1isYORIX00i/N9//wOtgpBHX07H0j3ChGSMirHZIXPesJF+oa9g6ZJl4e67764Y7mCRkj4dqnTcqs2dzlvyCWQ9f/7iiqSfR5ouhDeZc889z9KmNvxeyfJnUeKzee6/X41vM7+NTr5UPLVPuUhFlRmi65oFpM9Jv4HRx9OPBQiyh/znzF5gHXKQCB25TvrVg0J/33332Tw75dr0e0m/LWzetMU6akUcA4EOTOaAtzeIXPNOkfTjdnbPXBv9A+HLfkNFnvQzByEjfPKKNSvFtFhHbhWknweePxPSMVY+S19KLqVpJa92Tp0ezj3nAltbYDSgMoBgY94yGO3D2wpxd9J30q9blHj6jBMvePrM575wwRLz5JjD3YdsDg3oi5E72dzzWTt7kbBypH/SSadY0wakMRDpQybMB79ly5aswKWVSZSU9Jmy+YorrhgRT18ePiSfzqXDFMnDmR2TL2YhUd6Senp6iqSSSV/Sp3lsj933CT/+MDpTIKsMYAd0CumrbBB3J30n/bpFiadf+Bx+xvTZ0cufb4WYQg2BOOkPDeiLD326urqygpGSsxF+75h9FlFh1A6kD4lUAvqHbE455RRr0y7v6Wfht7V1hLPPPtu8UEhoOEhJn6kRmDyNJkBG2/CGqGfOm7toyJ4+aeOjKOJLxXHWWWdl+bNILqVpzaQtOilLwzPPPF8IZXDgWSk5p1IJugb70o+gLcek5zTcZsJQSB89NCqaivTJjJA+Y76tM3BSJPzotUH4DNPMPFAn/eEAYsYbZxoFKxgJ6aNfmkPwjtH3VVdebWQvshgI2OKCCy6w8e2yVVmZONlG+vBmMNzChxerqZVnzMgmT5tqk6cVOpON9GljHzrppyC+ePvqCOe5+ZFKenvq6ZkXrrnm2qL+kEr5lPNUYlQwVC6ffPKJvWlR8fKWofvRc5rv07Cxlzx9wuE6fdTF8YHi0Iggjf2RPpISv0ife9BFI6IpPX1IH1KaOaPHhttBQPLaKExO+kMHwxAPOeSQQqXad/QOOkbXnVO7w4033FQklcHol+v++te/2he6lUifDvqjjz7aiG24BQ8vlo/M+Bp2wYKs05ZZMovpKqSplqTPNMibNm0qEkq5txqeT+VzwvEnmcfNfQPpkbysr3Gvuuoq+0L4uOOOs5XMWDGLCk5kpa3ClJ00IgqhUuUtDYH42cr7byagi4E8fbZwygEHHGDDhQeyRT2j6Tz97du3h1WrVlm76ezZcyM5ZeOjnfRrA7xHpjmW51NC+gg6jsIwx3/+854SYqkEzmMLPmjCCy7f5JHJ+HETreJ59913LezhANKfO3euzVPDTJ427QLPsG2MQ0xLrUkfb5z1antn9yxNq4am0hx50EGH2nw83Ke82h8g9RtvvNG+oSDccePG2WghhCbPm266ydILoSvPEy4evCoB9iF3tlwL8as/Que4tplAegYifWwFpxx88MHh9ddfL+qrEdF0pM9HLZASBbm9XdMEZKN3nPSHDwrHmjVrYiWaTaRWQvoQZNQtet51+arwyMOPWsEYjH45z7U0fbCwd5/KJBE8fea4YTiowh8qIDGGn1Koszlw4jOi4CRov5akr3Teeeed2RtNP54+z0T23nt9cboQ5dUU/Oc4RM5av4sXLzayz8LNpnawIbBxn6+jn3zyyWIzDffhucuDl4cvr559tgj38F9vHc0E9JCSvuaB0hYPH8LHXnCL2vSHk+/GEk1H+hiET9+zeWEgpd7C5KQ/fDzzzDPWfCYi6Y+c99hjn/DCC9sLdw0M2YBZIllUXaNmyglt4MxRA8kNt/DhzdIpTQHv74vcWpI+IL6PPPKITTsBOefb9Ok4zpp4psQKdg/7fkFEnU8rxyBl3gZOPPFEq7x4U0I/6HH27NnWFCd7MTMqeZ77ROoic/0X6Us4h/QXh0ZHJdJHdyJ8Ovx99E6dAUPg6a9atTLzdGz0Tq4Qx62T/tDBGP0lS5aYfq1wlJA++5kcsP/B4a233i7cNTDQP4TCuH4KVrYQSa/tUqGDnjj861//Grbd6KPQ6J2suSp5zgiSPpUn0x9bxVmB9Fet3M3yNPlUeTUFxyBkvnGA6PH0WYOXtzG+pYD4abpSHwyd5OqYVVMP/9kXsbMP2bOP6LhshDQT8qQvwkdfHKPixNtHh076dQYMQZs+7ZcZKbmnX2vccMMN1nRGAShH+njoyJFHbAkf/efjwl0DQ4TC5Gv7779/HyJMBdLH+7r99tuHTUC0r1Ogs8660SN9OlYhkIFIf2UkfQYn9Ef6ImaagCB5mr14E9trr72M+KkAqAxYRCVrwppU7KCF8AlTpJ8266SevZ4rwm+2skL6ypE+nfvkM5wC9WGhTyf9OgKG0Dh9MncjePoqSCpMqdQDiAc6QiAB5sCncGQkiY5LSd8k6vn4404KX3/9TSGUgcFz5H3yVe7kyb3t2vm5amgOoSBee+21RfsNFfmPs0qfE7eFONSS9LE1cwcx4CDzKOmnyHSXNWvR/5TNE7V69VojGRF0Pq0cIzw8fdqbIX0+nCNsFkqHpNjHw8dmVNa83WBLwtRWnj4i0merfAmGo+d6Bjpg4X3yNfagKQyyV9OYCB9pBE9ffCLbpQKaivRBycdZuQnX6p308zJWcUpBHET4EMGZZ55pq0RRGMwrypE+HaDod9u2cyKRDP5rUj0HYZghQychvtTrLUokfUj6kksuMbIajp5S0h+tNn1sy0R0EEi2tGE2yICholRw+oocfdKmzyil/kgfuyAsUE9fFtM80BEO0dNngLcP+VMesoptkukMj560492L7NN9VQj1kg9HEinpi/Bpw5fX38iknxfi7aRfZ6Qv4itXwMcCxEHxYege4+ONIE2/edLPpKOjK1z6ZxY6GXz8eQ7ppwBSsXRN4wOt/kg/IzC+bC03T381GAvSJ428pdD+TqfrlCnZKDPlT1We/N9/vwOtyYt7yuUJ/nMOT59mnQ0bNhjZMyKJsGnmYWtNcdFeIn0InrRzL/vy7qkM0vxI+MPRbyMAHUD6NOfg3TPKCfJXHhfhI41I+iq/yj9O+gVFjJURKxmI/2MN4gAZUDD48IflDbMmCXV8JqQf9YtuZ0zvCVdd+bfwRxWkrzTzHNaKnTWLD7T6J30K5bHHHmtkNxzbjQXpM9Jm27ZtYeedd7a58xcuWByJnzV29RFhTHdMM8/dtGmrEbH0k0+r7IOnj4dKpy2Lo0P+LHSDp0+fBelD1LxDWCJ5dC7vXrYGKhdjVTZGC+iQD66oNPHwVUGyRZz06xz1RvqEW84IKnB4XangdUl0jOtUGLlfYWpLeGxHAnoGz6aza99997UCgX4hkZT00S8fwzF19R233xXvKwQyCPAMNSn84x//sJk0s6kzcoRvz8ETnhAOP/xwa/oYDkaL9LEndiSNL774ok0hzTNJx/Tps6J3ucie05tHO2weoLPPPq8QQnlgH4Svk/FQsQtNRnS201wByTPSiX4SvFia5qh0iA+6TvOW9K8y0SogzYwaKxmKXBDLFwXCR+qB9FUmU6mGU5z0R5j0gYykQqaChuSNp7joHuJHYeQejMY9Ivm8jATSePAxFJ2FKgx50tf+rstXh4cefCzeWwhkEOAZIpwnnngiLJi/KNqwPOnTBg5Z6gMt4jhUjBbpy340kTEtdNovwsdm0+Pb0dy5C23uIp5Hmz4Tv91zz/2FEMpDeQXSh+gtvIKHKsJibiEqGd4AaPbRXDwie+KmPKXwWgnoQM07GW/UN+kDnq8yUy2nOOnHzC6FjAQIl2dgFGpZkbaemZdyxhI4xv3lyD+9rpZQnNgytpzmAhFLOdKneWJPPsx6/qV4TyGQQULp4wOtJYuXRRv24+lPijaM9sUzI07DwWh6+gjLJ9LZKkLJCHqyrZvL9N9493j5PHf5spXhgw8+KoRQHsoj8vSpSAiXJh2aevjwjP8QP29pfJwF6eNIpEJeUnjYoZUAcWrIZsYb9e/pi+zhFNlPeSEv4giVYyf9RFm1gsJD0ppYJJ2eTyU1jiR/ni3hQI4qsBwfKeh5pEPLGYqs2JaQfkG/69cfEN54/e0Yr8HrVOnjOYw5X7FidQw/Ej6ky1bPsOdkxAbJPfzww3bvUDFSpE+clCa2ED5r7DLkleelpMLQYipLG/lUqOg62rvC4YdvCr/9Wtm2Cp82fUbt0LTDWwQffuHZ04lLRUCzhTx+8iLxIe+gb+WhfJxbBeRvPH36RFLCl33qgfRlG2S4nOKkH5UmBdUKKJZwKUyQs7zy/ozAORW+VDgmo0pSY3INhmdby/in4DmqYGiWoKMr060Iq5f00S/DDTcceEj45OPPq+rIJf5KK1P68rYA4RoR4vkWnmES7cqz+eCIimg4aR8p0sd2silbnsMSj4zYMb2VkEv6tpTlz2nTZoQ77/hn1EkhwH5A2KSfifCYhE4fZNHhzkdZpI3OYnTFsxivT0eu8k6ap1oV5Lv8x1mSeiF97EQ8sZvKo2zHNi+VOMVJPyqn1pkepaPcfE2cGoXzqhAqiUhd4eSFa/DaOD8SIN7KPKxWBXn0R/oiyKOO2hqJ+4cYv0Igg0CqH5614cCDrVOYcCH+4jPsORnp84XpzTffbNcPFSNF+ip00h1z7TB2nueY3krIpTR9zK65Zs2e4fPPv473V86Xyr+QPqN1mLIZgfjx+nkjoxmMph2aemj2oSOXfEPc0Df3I60KdNgIpC/OEBekZUbn4QtxRznhvJN+odDU0ogUcpSLEWQYPYN9lA9Rs+VaFb68iDhkLLa6lrB0XhXDSIHnEd/zzjvPCLIS6TP08KSTTovXE89CAIOAdCM5+ujjwrTOGRZ+9rVqasfsK0meT0UEcQ8VI9m8I7vddddd1tzCM0xnOWLJk/7Uqd3hhutvCb/+wlfKAzfvIORl3iJ23333cOSRRxaHajLjJh28eP6M30dv2FJ5M5VWRSOQPuWb/CS+wuayG/ucU5PdQJzipF9Q4nCMyL2pMehcSQsVx7QVEei8DCFjcU4ikk/Py6vnXra6X9fqWbWCnkOTC8sk5gvFxImQWCaTor67urpj5XB+jAvxKAQySPAsyVlnnWudmublF+xWlIKnjxd7zjnnWMfkUFGR9GM+sW18Pitq0W6u+Env0jf9F3jlv/4SbfFz9O7j9qOPPg0XXXhJWLpkWQyD8fekRVLIn1HGj2cILMcgmLaw1557h6+++jqGnxXUSuA8eYLvFZhcjTcxmnWY951yQLpoq2bIJnPzYDPyJ3EXiH8rA13UG+kTPvFSXstX1L35rjKn6FzKKU76BcUiQ0VqBClW/wmffRkHQ6Tn8gbBcBIZja3C4b8KLf/1fK7nnNJTKyhsmg9YJjE/jjkvEAyrXw03Dtddd6ORfubpl9oxI82JFpfTTjvNOkiHikqkj5BnEIZTMkJGIH0I+s50zxtXtOdPrF71dbjj9n+GffbZz0bkaGGW/mTChIxcJI899pjZlnAJvxI4DyGgA5p0uJ/00JRERy4jhWjrZ9QOHj9NYqRZecdRn6SPfRCeg30p2/pPfNlnC2+knEKeqcQp/HfSj4pDWcMxou5HqSpQ/JdhEAyHEWQwDKXhVtzHsbwQBtdjKBmXY/xP3yYA1+sa9msJ4rBjxw7zFgcifeZ5ue2224YdhwcfeMSaOSB9hjOmdoT0GZFCB+Xxxx9vo32GioGadyTzjPRLm3dkJ/T+6aefhycefzqcd+6FYbfVu4eZM2Zb23wW394wywkTvZFfaYphwXdsiI2VdyqBaxHWwtWQTd6AIHfG5DMNAyN2sAvHGdlDmpVvHPVL+qAcpyDEOc8p4gXyQyVOcdKPCkMRwzGijKEaWf8VLkaQcdL/Moyuy0tqqHz4bBUG4SIcQ7i2VuBZxJc53SGPgUifYYN0WnLfcLD9xZfDjOmzzWb5Nv3Jk6fYhzR4rkwyxvJ1Q0Ul0iefMHyS0UPs0yFK04kEb5q8BqF2TesO7VOmhXbW2I2ePXHmHoQPrtJw80KTDoTMlNJMdYG+EeyIfSuB67A5pM+4fJET6cEeGrcv+5BWPhAbrn2aCZSdevX0K3GKyjr/2R8spzjp14j0CUcelJSrrQwnYlbzjO5L71F4+p9uuZYCi2H5T1iIrue4DF8r6Pl8JQvJ5QtFKhAX7cqsaUBch4P/fPhJmN0zr0j6aiKhqWfmzGwWRAiNSuaFF14oPo/4VoNKpJ8XnpdKSgbM8V/unv6EdLVNZobNzNOnExbiwX55yL4AWyg/SMhPTMpGBy6ePLbI4lTaacx/One5njAcGcg79Uj6Ku+ys+zOcTgF4mefPNMfpyBA+4ThpJ8oaKjgXogWQygsBAVjGBkE4RquZV8Fj2v5z7Wcx4iQua6T6DquUabgWp3T87iP/7WAnsmKWXzoky8UeaFdmQI03Irn66+/DYsX7RJt1VGcmoAt3v+8uQuMdCmQFNThLJtYDemnhT8v1ZC+vH+ardhfsnipfVmMXZE8ZNtUdIwtNqeT+ZRTTrFpMtANFTCS2sZJvzzI3/VI+pQhbMWzJBxPHUeuKccpbPmf5xSOOelHJUihQ4UMIa9biidsKVzXiKT5j3C9jMi1GEnXcUz3Kp4gDYd97lEa2Oecrq0FeP6tt95qTSoUgnzBSEVNFMMl/Z9//i2+WawtEj7S3T3L5qOZ0ta7khEkxrKJPE86rQbVkD7XpKI4INV5+ozkySanWx3T+OijjxUXNsGzywNbYmvZFsHuKujsQ/p02tJ5i52wBXFMbcN/J/2+QIf1SPrYFeFZshdxhSc4rmvEBfxHuJ7j5TiF/O6kH5WFkoZjRBSNQkW+CpNCidLZpvupgVSIuVcGk3Ad57hP93CcrYxJeMoAeib38L8WiEHGMH8P11zzt9DRPjUWAvQKmWQyCUlIkPHgZCziOxz8HuuM/fbdYIupYK8ZM2aHObNZDIRKIPPyEQomHcepnqtBNaRfjhB6hXsh/oJoaKat3obOeo8R/87Obpsr/4knno72y+xIGrAddhSUF2RntirEygPsM3qHETqM1OGrW8UvH18n/b4gr9Yj6StP86y0fKd5Pd3XdZU4heuc9KPBpZChgntRvogZYR9B+TIK+7qGe9gXQeaPI+xzLDUgYMt/GTzNHNzHf107bES1/PTjr+GSSy43veXnwUkLBF+AnnDCCcW4DAe//vJH2LLlWBsBw0gYhkxmo2Eg/Iz0eSYdy1dddZV9RyA9VIPhkH4lIW6EqWYW9hVn+iPQE3m1nK30X/aUrUXw7KsCUN6A9Ldu3Wp9Kmr6yseJY076fYGO65H0ZScJ8ZTN2WL3PKdwfCBOcdIvKGI4RuReCqKULAMhMlBqLBmCgivD6l62HMegOsY+13Ev93GMfY7pGVzDOf6XI5KhArV8/fV34cxt50Tywkvt1afpMikQfObPkMM0jUPFL7/8Hi666NIwd86C6OHPt07P3ukYMkLlmRDqueeeax2Z6I30V4ORIn3Fjy3CMSY8o/mLVbPIeyLuvJ6kO9k+JXlsjqgS0HlG79DRrqkX9Mx8nJz0+4I80yykTz5R+ZdwbcopTvpRCShrOEbkXhQt5SPsI+VIX8/DqBxjX/ek12MkthyHnPjPdbpeBZ972HKca2X0WiAGaZOnHX/8ybaGa6pP02VSIPRhluI8HED6d911ry0ukjabYLusuSTzptkyVp9+BJ5Z7XNHkvTVocqIGoaWXn755TZttOwm+2K3FPxHOKfCKtLXPoLddZxvFdLJ8HhuuTg56fcFeaaRSZ995RnyM3mCfe7hnPKI7nHSj4qUwoYK7qUgo1QZh2P813GOSfl6ngqtjKoCzTn95xruJQPwn+M6z7UI1+gc1/Kf/ZogquXddz4Ihx12VDZsMufpUyhUMCAd5pkhLmk6ByuKP8KcM08+8YzZqve5hTcN2sULz2RLBya2lP6rQSXS51k0ZzFklPH6SisCIUCsEv4rPiyDyJbhpEcddVS44YYbimRP/JRWSTk9IMofCB28yksIx9jqGJ5+SvrlhDg56fcF+a1e2/SJm/IDktpcZZ2t8o7yjK6nLCLKV5xz0k8UNlRwL8pMlQsIGwPJCCqoeh7nVQDZ55yMiHC9/hOOiF33cl7X6BxhcIxraoIYzKuvvhHWr9vfxshnHnei0wIBsuXjID7MgkhJlzLgYIT0QWzcy/5PP/0aXnjh5dA+pdNG8JQ8M5J+WhBpx+aLYXQi3Q8WFT39mF+yN4tsO6WNCeVKBRLFk+cth3zHV8vMB3TTTTeFp59+2pbhQxeVQJwlsi372FR5QvlI+QDhP+e5ltE7Wi5RNskLx530+wJ91yPpq1zzLNkLe6dcoDzANQj7eU7hGvYR9p30oyKksKGCe1UIUbbCY5/jGI/91AA6zzlEBoGE2Occ/xVmamju5RplCraEzTnFg2tqghjMs8+8EFatXFPQX/+kDwnypep+++1nwnS+1Qjt3XxgBHHut9+BYe2avcxW+amV86QP2bGwNTpBqsFApE+aGTHEHDr33nufjaeXQOoIa97iyUMGrNn75Zdf2hBMbCbbVoLyiwQ7praUrRH+y+7KDwikzxfK6EM2yQvHnfT7Av3WG+kTvuyPrdK8wXHygPaVRwDHlFc4xjnszb7OOelHZUihQwX3QroUchko3YqweZYKrJ7Jef7LO2afY7pPRk/PcR9hKVwZmHNcr/BrAYJ5+KHHoxfP4h9lCLhAMGwZSUM7NsRCBSACGoxwHwt34zFzf9HDjoSbX0QlT/p0XkK8pL3adFckfdIa8wxvG3QoM+mcbINI59pH76p8iQv7HGdbCcoH3INNsbXuVx6Qndkieh73Ik76Qwe6rEfS749TiK/Kfrqv+7iO/+IU5UmEa530o9JQFDJUoEwUi4IVngyEYAAKLMc4z38Ksgyh47qHLecRjrMVsSs89kUOuk7Xsq0V4uPCPXffH7q7ZsUC0Jf0M88/kUjI1v5uus6dKyPWZBSvnTVrbrTJ/FhZdBbtZNcUw0oEu+YK5+OPP256QT/VYCBPH6E9P5twrXeWzVpC9hap85+t7MtxtuQxXUM6lR+QdI1c9MFIIZrbSJv6HZz0ywM91mPzDvYmf8rOHJO9lS84pnKP8F/Ccd3DVtc46ScFZ6jQ/Sqo+p8aIDWKCi+1rq6VEB/OIexzLdelBuU6HVMtzzFdyzW1wm+//h5uvuk2GyOP3noJebgC4dMh2x56IuHzpW0Wdlop5O8pSI70ecOgA1mFoBpUIn2Lj5F+9YuoVAPlDeyHLbWP/bEn6SJfcU7HgfICkl8YHb0wtz6TwfHW5aTfP9BnPZI+zyAvVOIU8gT7KvuIrpVwLuUUJ/2oBClnqEgVrMIpoxE++2xVmDmuY1yfCobR/Qj3IGk4uo/jMiTnuE/31go//vBTuOIvV5tHTjNL/uOs4Qh2mDG9J8zuYRx+DLtAsEMh/WuuuaaY4atBvZA+NsSWdGbzH/uK4PnPPraVrZXfJHlPP8v/E+3bCY5D/E765YFO65X0EexVjlNE5vznuI5xfSriFF3jpF9QGDJUSJkApedfyVIjQUwUYv7ruamk93Ed1+t+HZchOS9jsuV/em0t8N//fmNzxDNGP/P0c6RfIMaipOf6lWy8/fTuHmsr17BIOxfDsOGRlcLNkT5DJM8//3wjTNJfDcaS9GUjbKnCyj72Ix3ETQVWdu5PIH3a9EkHkuqHdQcgftLppN8X6Loe2/RlI+UN4qnjKufkCziCLf+VHyQc03G2cISTfkGRSK0gQsZYUjrCszjGeYwokpZwTgVcYXAcKI66X8bWvVzLsVqn5ZOPPw3HHXuiteWjP+lQgi6z+eazOedLiDon2f3Z9UytwIdXTDpmFUnu2j7hJs/Mkz7Cql5MxSB9DRajRfrYRIUPkd04JptjQ2wq+5JH5PlzbTm7Kjx5+uT7lPTZp2lHxI/nT5oJ35EB3dYb6ecxEKeQb8gv2FV5S+eUt5SvnPSjYlRwagXCxAgoWgVdBtJ/jCFDpCLD6lqBfRmXcxhP+zIm+4StbS3w/vsfhI0bj8za30XOiU7z5IzX3p9wnr6Bnp55YcH8xdlcOpAq5/Huc9cOlvQpmAwRZahktekeLdJP84EKIVtsKrsqT2if89iW/f5syjGkHOlrK4H4WU2LNPMcRwZ0W++krzxCnkjzEnHXf+WflE+QPKc46RcKUy2NSJgYR0aSsiWpwfRsHdP5VLgOwyG6h3B1DEnDRWqFN954M2b0dQnxlra1l5JzFIZY9iMa+shIGJs9Mx7D06c9P39tSZiDIP1ly5bZkMpqMdqevsicrQopNmWfAqr8IvuyVT5A8tDx/jx9fS2sYxCb8qUjA/qud9JXnpBDwH+VdYT4sOW48oSO6bzEST9RUq1AWDIABZfCjKH0HJ3vT9JrMLRqa/4rfESG13/JcKHnEP5LL70cCXVlcYbLPOm3tUXSnxx1O6nNVrTKy6xEdlm6PKxYscr27fyM0uu0j0yfPjNM754RvVMKIkTGqJSClCF9vFjsWW36R5L0U3uwFZGL7GVbFeL0uLayRX/QM/oj/VQ4pzZ9nufIgC7qnfR5HnmBuJI3yDfsy/4635+k1zjpJ4obCaBkjCShIFO4U0OkwnHiJAKgZmfL8dGCdEIcnnnmWVu20Jb2Mz2Wkr5GhVBgbrnllvDPf/6zX3nooYfCPffcE+68886y51O5/fbbwx133GFC2GnBy5Ma/4nHW2+9VbWeRor0U3uyVWFVHlBbPYVXIrLnHgn3VoKeMxjS57h35PYFtql30k+B7ZSXlJ/EKUB5QsLxlFOc9AsEh4wUCJvnqFBTwFOjSVIC0DEMxb3IaEFkQ3wfeODBSBTZQiYQYH9f5DL/DfGWLssJ4UpSvZcTiEkVHlM7pAWvHKlxjHV80Vc1GEnSTwubCpxsC+mTRkRt7Lom1RPhVIL05aQ/dGCjRiJ9wPOJ91A4xUk/IZ+RQlqAta8CjtFSEUGk8dI9owU9G9K99dbbiuRnkujTJBYMiGT9+vV2XwrFP5X0eCWkGZXVuNKClyc12q3HjRtnbxDosBqMZPMONiM+aYFjH/uiW0YbMUcPxzmmc7I3MpCepEsn/aGDfNtIpM+zlTe0j5B3BsMpTvoJuY429NxU6gHSyX//+99w+eV/CeN2jpnfdBe9/IIOixILBqR59NFH15RIiAPhsT3rrLPsA6xKhAbpX3311Zbpq0GtSJ+4UsCkOxVCyJ3jEDrnVDDTgohwDKlWh8o3TvpDB/pvNE+/Pyg/pJKHk36hkJZTTqsCQkBYmOScc861D7Oku3KkD5HwcVQtiQS7KB6sNKXJ3MoRGsfw9qkcINdqUCvSJ74id5E3/0WwePTKaxynMuBaCce4rtp8qLzrpD90NBPpDwZO+k76fSCdsO7qSSedHPWY6U4kmOoUsqUT9dZbb60pkRAW5Akh3nfffQOSPtuNGzfa9dWgVqQPaRNfdAeh48WL3EkLzxGxI1yna9gH6Jz/1UB510l/6ED/TvoNDCf94UPExGpMhx12uOkrI/2+H2eJjB988MGaEgmEKC8Ym1Zq3pkUyXry5LawZs0aI9lqUMvmHZ4tLx9iVfzTyoD/nFeeYz/9X20+1D1O+kOHk36Dw0l/+IAQ8DhZEGT16t2ivno/lJIOJfr45+WXX64pkWAXkSGrT2FPiJ9n8V1AGgeEj71YQP3770fP0yduiqN0JrIXyXOMZ4j42VKh1QrKu076Q4eTfoPDSX/4QBcQE+Pe582bX5H0KRQsYsLC3LXUIWGJUL/++mubJrhYACeVDhuFmLHp1I7u8PlnXxVCGByGS/qKJ2QO2UP0InkIX96+3gLUpFMrKA5O+kOHk36Dw0l/+IAQEJYA7O6ebmTfH+lDIszZDqmhy1oCmxAPSHTJkiXFD8HydjXSn8xiIW1hx9vvF+4eHIZD+sSNOELkInS2CMQKuXOMZ6AbyJ9ztdST8q6T/tDhpN/gKCH9CRD/lDClLVuNCbJn2CFt0zQFOOmXB7pAL48++mhoa4P0ChOiFdv024xgmRgNotlnn33segiu1oCcICmeAelnzUmR1BJyZq5/7LvTThPCc8++WLhzcCgh/cltNj9Q59TuLJ1RCBeZP69/0ofcRfrEla2addCLKkSuV36rFZR3nfSHDmzipN/ASEl/wgTIoc0W6pjePctIX7M4zpnjpN8f0AkkxsdOEybEzJ8QrBH++Gw+/Fkz5xrRbNiwoUhqIwEIdOvWrUUys7l3kjhp2uf/+z9W0Lq3cNfgkCf9qR1dNgvotE7ecAqVXdwO5OnjxRNPCBWSRzRMk32uldQyrynvOukPHU76DY4S0h8/ycaYt0+ZZvPHQP5ZE0W7zfbopF8e6ARiYDWqCeNj5k8IFtJHh7NmzjFyxPs+4YQTjES4byQAqV588cW2WIoRmlXmvXEazzq7MV477zTRVvmqBinpMwqI8CB+1uvtjo5C5umXXyNX+YZ0U0mq+QaSR39qynHSr29gIyf9BkY5T5/Xf4ifdVh7Zs2zQuzNO/0DXTBFwLnnntvH08f7ZU3bGdNn25TIFIxLL73U7hkpIsFGN910U9hpp50KhFZK+gjePvE59pgTCncNDiWefiT9bG6htnisy/JLd9fMmJc6IqFWHr1DHNVhq7Z8jon8Rfi6vlYgLMRJf+hw0m9wlGvTFzEwPfD8eYsj4Ufy75lr49Cd9PsCQmDEzObNm2Omz7xotZvzxoSHTyXK/5132tmagSC5kdIh8eE7AI3Vz3fkQtQ0ORGnvffat0isgyHYPOmTVpOYtqlTu+Mb4cLQNW2GvRnmPf08yEvy+CF/9qkAFA9JLaEwnfSHDif9BkcJ6edH70QvdcqUzrBgwZKwetXaIukPhhxaCeiCVaj23XffqMfeNnzIHtKn8lR7N0T81FNPGemPFIjPiy++aAUwI7Scp1+o2Jn+eenSXe36lGgroS/p94ZLpUZTD/ll+fJVNi1FJfBM8pNkNPKV0uikP3Q46Tc4KpE+RMWWZoDVq3d30u8H6AMS2WWXXaIeM8KfOWOONeswuoX/WdNONprmnXfeMe92JHX43nvv2fquFMJ8Ry6VuRF/FPptIHLZdSByq0T6WWWSde6yetiXX1b+BkAErH09n7iMFPRMJ/2hw0m/wTEQ6dvSfHFLm76TfnmgE3TDalRtkyORzpgdPfz55tlDgjZmP+oRXdKRy2ycNGOMpA4//vjjMHv27Gz+nZxdETXx8BZC3IkL6RgoTgN5+qSXdC+M3v7nuTb9PFKS1z7PH0m9KHwn/aHDSb/BUbF5xwpxRv7+cVb/wGvfsWNHWLx4cZg7Z56NXIHkTYdRd/pQC+npyTxrdVaOFGhaWb16tRVClkxM7WrxiralEho3blJ49dVXjdgGY9cBST8KaaYvKN+RWw9QGp30hw4n/QaHk/7wAek//fTTRujMvTOtc4Z50uN2hkzQXy/ps2IWXr46LEcKdCwfcsghhUJYmfQffvhhS8Ng4lOxeacQrpH+fCf9ZoWTfoPDSX/4wGtnOmOaU5iGgaGLtGur3Twl/YMOOsgIf6Q9fYaQnnLKKbZYSt6usq1I//rrr7e4ECfsWwkVPf2YT+Tp77J01/i28UXhrvqBk/7w4aTf4Bgc6Xf4OP0KYLghC5fwMRQjZRiyiL6YyZL2bWviiQTLdtu2M02Hg/WshwrI+c9//rORfp82fYg5xgvSZ2gp3xeI9AeKUwnpW57pDRfngLwyfXpP2H3t3jaiqd7gpD98OOk3OAYi/awgt4clS5Z5R24/wHM/44wzbGRO9vVrmxE/o3eYydK86rap1nF63XXXme7QIbocKVAR3XDDDYXplYlTYtcCOUuOOOIIiwvDSKslfdJmzkEhr/BxFh9mLV2y3Jt3mhRO+g2OiqQfCzEFurtrVthttz2c9PsBXvvhhx+ekUckfbxnSLArEiDj9JmXBq96/LjJ4b777jdyHQzBDgd47ffff3+B0PraNSX9tWvXFuMzkF1T0teHaNmbwxSbr2nu3OzjLO/IbV446Tc4BiJ95lNh+N2iRUud9PsBpMAqVAyPtGkYIgHi1ZvHH4kfIoT4mdfohRdeMC98pJt3IPHnnnvOhogORPqa6pl7qif9zMPvmjbT+jKmRcKngis3y2Y9wEl/+HDSb3CkpM/cOyIrRp/w4Q6FF8LyNv3+ARHOnz+/oEMyP+Sa6TFr8phlTR6dUY8sniJPfyR1SNgUtpkzZ8aCmBu9U/DMJSy4wrcDsm0lkFaIsEj68X6InvzBFMvZ2yFTSDvpNyuc9BscedKHBJiFEQ+fV/T29mlGXE76/ePTTz+NxBf1FHWYbz/PvOl2a/pYsetqI1d0NxiCHS4omHwlXG6cfioQG0ssDiZO33//fZH0GQqKQ8CHaFnfRWH0TpSB1sgdKyjvOukPHU76DY588w6Eb00SGnYYSYHXdZ9auX+wTKIyuZo8ihIJ0ObeiTpctXKtecrobqSbyAj/gw8+COvXr48knItTTmiWev755wdlV5E+ndZdXd3mGGT5pFCxOOk3PZz0Gxx5Tx8Pn1dzJuPiVZ1mHkifDkkn/fJ49tlnw5/+9Ccjz/yHUJq7Hj3uu++BRiBq2hlJHWIn3kAYmVNuauVUIHA6fQdTEYn0Ozs7w+LFLMnYaR3XpA/Cd9JvfjjpNzhE+hhr2jSmxl1gnimFmMILKdA84R9n9Y9bb73VMjzDI/Pz6ds4/ahHPP0tm4+x4Z2jAezz1VdfhW3btoWddtq5JE55oWP2yiuvtHsGIrdvv/3W+gmyNXizCfkkll+c9JselUhfehPps2zn66+/Pqi8Va9oKtLHECJ9ZmScM2dezOTTMs9tvJP+YHHZZZcVV6nKe/rygJmS4YILLjEvfzSAffgqN/tAa3xJnPICsVE5YNuBCiajfJYtWxamTp2afQOQhOOk3xoYyNPP3ngn2wSEhx12mJH+YPJWvaLpSH/79u1h9913t9EnUzsgfEgrIyon/cHhuOOOK2b6vKdvY/bjdtzOE8MtN98e9Tc6GR/70H/AClr5OOUFT//II4802w4EwsRBKJdWJ/3WwGBIf/r06cYp69atswn9cHac9OsAZH7a2w444AAbtjdhfO+QTT4kctLvH2n6eYVlPDwE0rf9PHtjwuP/1/0PjVrGJ358C3D33XdH+2WVeFFK4jfF4k4a+KBrILvSpk8lQcHOd1o3K+nzduOk34tKpC8Pn28/6PfBoYT00d9Aeate0XSk/8orr4TddtvNjJWtkZsrxHHrpF8K0i49kJmXL18edTfBiLCcV01HOEM3X3zhlVHTG/GCxJlBs7Ozy2xI/0K2LY0fcV+xYoUROumqBAhQFVy5kUp6S8wWRq9P0kc3dHIPRPqco4Jz0i9FnvSzqT4yneE8olcIH/15R24dgjZ9SAuDOekPDqRdeuC1Fc9G5FGOCNEfX6zuePv9eE8hkBEG8SNufJU7b+78AUl/7ty5Ngf/QHalqSPz8iHK0vxi/RdR2A5mjdyxAOmDwD/55BNL80Ck7807fZEnffIPOuRblTlz5tiW/076dQqRPgbq87m+k35ZKP0QAV4gmVxEWK7JA0+fYbAf/Wf0SFCk//LLL4eVK1cPSPpMCw1JD2RX3h40DUOfidwKFRz9GIsWLrVKpN4g25FWmiAGIn1sO5jZR1sJ5Ug/Gwgyx/IGepM46dcZMEQ6Tn/iBCf9wSBNP/pAfyL9rOkj6o0KNApfw05paw/r1+8XPvt09EhQc/azotdhGw+LBZOvrYkP8coqJ+JmX+vGgkvzjpZxrAQqkqVLl1p+oSmL/gILq5Bejo0fPzHsv98BtpBLvYH4I1rIXl4qOki3pA+bMjQVnbRyfs8D/Yn00RVNOiJ89CnCR/bYYw8n/XpDCelTcJ30q8YVV1xhmV3Ezz7kgWR6nRj++te/2hj30YJIHyInfjRTEI80bsRVBHfxxRfbyBzuqQQKPENUlV6lEVHaaeO96qqr7C2o3kD+JY3fffed2UT6UPxT3ZAO0sr1nt97QR5488037XsNiJ9mMpydVJcS9/TrEE76wwd6YUWsbBGVibZwCQVAGX/jxo02VhlSHS2I3CB/ns14aeKkgqkKCmJjWN17771nJD0Q6TMiiE7Qgw8+uKQDj7AkLNP42muv1WWTCHGCtEjHO++8Y7bBXpCW4i8bkg7a/mnT5x5HBvIUpE+z8MKFC0sIH/0p3yNO+nUIJ/3hA6+RZpRzzjnHXnPJ/BQC9s866ywbssbXsaNJ+pA3tqKAQuYUvDPPPNPiBFkTP7w04qcKCYEMK4ERPlyTppewKOyMyz777LON8NFJPeYRkT66QS+Q13nnnVecJRUhTaeffrqd4wM33tDQoyMDumCCvlWrVhXfIOUAkBekR8RJvw7hpD98SB+QJjpixAyC9wz5oTPIZjR1pmcpbhRU4kKcmCvoqaeesoILoSlukkrQNdxDBUB4pJUJ25g2Gh2MdlqHCuKIXtCB9PLMM8+YXjTVNGlplPSMFtALlT6d/xB9Xpz06xxO+rUFBIGXjTcpb7seQDyIE/FjC9kpjkMFeQCvnzAIj7AbDdIHW+mIbb3YrR6Bbvr7OMubdxoATvq1BXoRaUAg9aAnxUkEJxFhDxWEC9kr7EbLE8SXeKfEn+rKUR7ox0m/geGkX1ugF5GqdDXWIA7ERWTGf5Edx4YDhaGwGw15XYj8h6uXZga6cdJvYDjpOxyOauCk3+Bw0nc4HNXASb/B4aTvcDiqgZN+g8NJ3+FwVAMn/QaHk77D4agGTvoNDid9h8NRDZz0GxxO+g6Hoxo46Tc4nPQdDkc1cNJvcDjpOxyOauCk3+Bw0nc4HNXASb/BUQ3pM4uik77D0dpw0m9gYIjt27eHlStXFozWl/THj2fZuKlheves8NZbb9kc5EzUheEdDkfrgUn6IHKmVs6cxVLiZ059rbEg0ocvGnFuJtB0pM+CF/vss48ZyNY5zZH+hAlt0bAdobt7ZnjooYeK0wW7p+9wtCaYWRUumD59uq2alSd9ET9bkb4mIWxENF3zDotHsGSc1cwT2/qQ/sQobDs6usLJJ59sC3E06tzpDodj+IADjj/++NDZ2VlC9KngRMIpLKtJC4GTfp0Ab/2zzz4L27ZtK9TMfT19I/64T7v+okWLw113/TP897/fRgMyRW8MI3L/H39kbfwjIem0t3rDGKxwX7ptJknTJFu2qiiP9Pe/kqS6G+w9jSJKTzX6KCfcC2FT/iD8f/zjrjBv3vxI7KyzzOL4rCtckAnZGsMi/VNPPTV8/PHHxfsbEU1F+hiTpeKuu+46W+vSDJiQfolE8p8ypTMsX74q/OXyq8KLL74SPvn48/DZp1+Fzz/7KlYecT9WILUWFqYm07BlQe5y1/QnX3zxhd2DcH+5axpNPv+8V8+kLz3nkulHdi93vj9JdZnquJFFOmA7nLxC+Xv33XdtOcnLL7887LLLrtEZhC/aIzfkOSNr44f04ZRrr73WltWE8N3TrwNA+nTMPvHEEzaCJ9+8kxfz/KOhu7tnhb333jds2XxsOObo48Mxx5wQJe4fc0zNZevWreHYY48NZ5xxRjjxxBPLXtOf8AaDp7FlyxaTctc0ihx99NFF4T/pOu2002wfHel4Kwv5hAXN0U1eX+WEc+iOfXTJfTo+0L2NIqSPsoOUOz8YIYwjjzzS2ue7uroiF0wutgBo28sReP+Zl79ixYrw5JNPFldXY9uIaLrmHTpmqclpr588udSAJRKNSxMP0ja5o+Q4tf2ECb299rUUvIYZM2bY8LC2Np5T/rpyQpvj/Pnzbctq/eWuaTRBH6SHkRMdHdEO8f+4ceOaJn3DEeUTSAd9DKQTzqM7dIgu0anaqctd34gCSc+bN8+87nLnByvoBEG3mXMIuWd8kPKESJ9rTznlFHvD1uAP9/TrAJA+hsAo99xzT1iyZJfMmPHVbfIkCKXXmJlB4zYKxi7uFyRr0+vboTNUIaOReSjEiAiuWqEQL1iwIEybNq0k8zaCqPCwVdxJz5w5c8LUqVOL1zVauoYrSq+2kDd5BL3IMUivryTpteiUMFLiT22g6+pViK/Sw5bRNaSnvxE21Qjpl0wU6avsJxzBOZ69ePHicO+99xYHfah/oBHRdKRPDYzQjrntjLPC1I6uWIh6X98GLTUkfTIN4397enpM2CezKUMPVnQPhRni7+7uLnp21YY1VtJb0MoTfisLNkRmzpxpepGehiN54k/1X++CLogrlSCEP3fu3JK343L3DE0q9f21mQ5pWqU/AG5pdDSlp49QI7/55tthv/02xIxT8OTLGbU/qSHpQ/IUZAgfL0UFr9qMy/UUAMLj9ZbXXAoDx8pdX2+SFmIK0sKFC53wo4jE0At5BLtKV2zL3VONpLrmGbUKdzSE+OLcQPiUHcWbNOSvHbr0T/o07+y///72/Q/9hXj5jY6mIn1ATaw2t19++S088/QLYdflq8OUtqnVEX+NSJ/MSdss7av5wlbu679Kwv0S/lMIaOOnUDQK8ZNmyGfp0qXFQtwoBDSSgv1o0oHwdawWulEY6Bqdo/tq891YCfHGqSGPK87K57XN7/2T/qpVa2yUz48//uik3whQU8/TTz9to3l4NSSzkIEkMjxEmh4fjvAc7ePh0xSDZ55eUyuhEBM+FYueW8u01EKIl+JEfJcvX259GvnrWkVUcaf/8WQXLVpUcl2tBZ2jexE/z03zaj2I9EK8KDsQfq3zCs9ISZ9j8AKVjM5xbNmyZeG5554rsEnzoOlJn2YemnuYUOmwww6z3n95mBhaGV+ZrVbCM3hV57WafcKv9TMQMqg6d/GKSEu9FOR8enkjWbJkSZF0Wl2U93gLlDc70rZD99gAW6THRyJvDkWUf4kfeZr41rrsKDzKjt6EeCb9Y1QwOGh8efvmm28ahzQbmpr01bavET18fXfDDTfYeFu8CDIAhhf55zPHUIUM1J+XUsvnICIJiF9NPTo21qK0sqWyhWwYdZS/rhUFnWAnNemwj3NQ7tpaCzbAFtgktVH+urEQ9EAeJi8Tz5GIF2FC9JR9lX+ei5O2atWq8Ne//jV8/fXXxZaCZkPTe/qQPcSfev2M47/xxhvD5s2bw5o1a6ytk4LHK3YthNfCPfbYwzKujhF+LZ9RTkjH2rVra56e4QoEgz4Y9qZj9RS/sRDST1PL6tWr7W1Q+mCkTf7aWkmqc2yBTbBNes1YC3l39913t216vJZ6QQ8S9ECZ2bRpU7jpppvsa194QpzRDG34eTQ16VcCI31++OEHa/Z5+OGHw6233hquv/76msjdd98dbrnlFpsOotz5kRKeRzpuv/12q9TKXTMWQnyIF29Z5c63omAf2Wm08wmCLZRXyp0fCxmtOKFvplOgjFL2d+zYYVyAQ9iMJJ9HS5M+RlbTjwxeKyF8pNy5kRC8EqVHHspYC/FQvOolTvUi9WCr1Db1Yh/pZaR1o7CV9lQPzY6WJ30ZmgxQKxCWSB8ZDaQZWc8fayhOknqIUz0APchOY6UXnpnahriMNfJxGim9SP/psxBVNs2OliV9gOHJACOVuUYbSks9pace41QPqAe91EMc8hitOOkZqnxTaXa0NOk7HA5Hq8FJ3+FwOFoITvoOh8PRQnDSdzgcjhaCk77D4XC0EJz0HQ6Ho4XgpO9wOBwtBCd9h8PhaCE46TscDkcLwUnf4XA4WghO+g6Hw9FCcNJ3OByOFoKTvsPhcLQQnPQdDoejheCk73A4HC0EJ32Hw+FoITjpOxwORwvBSd/hcDhaCE76LYL88nD6jzgcjtaBk36LIL8INCLydzgcrQMn/RYBJP/LL7+En3/+2ba//vqrHXPSdzhaC076TYq0+QaB5EX2v/32m+2zFenrOrx/h8PRvHDSb1Ko7V6Ch49nD+mnFUBK9gjXOByO5oWTfpMiJXwE0sez/+6774pNPAgkj6TXOhyO5oWTfpMiJXFEzTmQ/k8//WTy448/WgWAxy/iV3OPw+FoTjjp1zHU9JLu58m8P5EHj3CfPH3IHuKXx88xbRW+w+FoTlDGnfTrGCJ6BFKWR65jeaLXMa6DyOXJ617+p+Gk1/IfcMzhcDQn4Agn/TpGSuJ46JCzmmYQzuUFUk9H5nCM+xCFo7BUKagC4HrE4XA0J5z06xwYCAKHnNn+8MMPRaLmf0r2iEgdwuea77//3q7nnIgeguc6rhHZ61nsO+k7HM0LJ/06B6QMuUPW6oDl2DfffGPHROKQNfsQPAKhc70qCrZcx/0QvhO7w9GagAec9OsYIn2IG8L+9ttvjfDZ1zEIHiIXscuDZ5uSPZUCx9jKu3c4HK0FOMBJv44h0pcHT3MNpC0vXqTOVsTPNVQI/Occ97Gvrd4OHA5H68FJv84hQheZi/zx+DmGAfHaRfgQurx6kTzXcIywEG+3bwxgo/7spHP58+n/cucdDjjASb+OkRK6mnTk7UPqqhB0Xs03/JdXr2OOxgFkje1VQes/BRZ7YttUOKZKHdE9eXE4yEdO+nUMCmpK/CJ3tmrC4T8CsYsAOM9/CEAVgKNxILLHfthO9k8r9PR4KsoH3Es4qTgc5AMn/TqGSF9CYaZQQ+wif45pX6Sg8/IAvcA3FkT22FO2TW0pz10VQypppa/8wXGudTjIB076dQwMlJK+CrKIgCYejokgOKYCr+NO+I0BkXhqZxF2mgd0XXp9f8e5n7xCeLpGSPcdrQPs7qRfx6CgqvCLyCEBEXvq8cvD41oJx/KF3VF/EEnLnmxF9jrXn3A+vSYFx5VfFG56vaP1gN2d9OsYInIKLEIBFvlzXCKPX9en3qEKuaN+gZ1kV2wnpLbTPtdyTV7SawVdj5AvcAR0LcccrQfygJN+HUMkLs8P4qcDl/8QBAbU0EyuU2WQkoDEUb+QLUXQ2E/7Imhsjv2xt5wA/Uf0sV6K1PZslZfS447Wwm+//Rb+P8YJ9HEhJiIAAAAAAElFTkSuQmCC;" parent="1" vertex="1">
          <mxGeometry x="290" y="300" width="168.4" height="160" as="geometry" />
        </mxCell>
        <mxCell id="F0nHGyrmaJnnUvTs5qRS-8" style="edgeStyle=orthogonalEdgeStyle;rounded=0;orthogonalLoop=1;jettySize=auto;html=1;endSize=14;" parent="1" source="F0nHGyrmaJnnUvTs5qRS-3" target="F0nHGyrmaJnnUvTs5qRS-4" edge="1">
          <mxGeometry relative="1" as="geometry" />
        </mxCell>
        <mxCell id="F0nHGyrmaJnnUvTs5qRS-3" value="" style="sketch=0;outlineConnect=0;fontColor=#232F3E;gradientColor=none;fillColor=#2E27AD;strokeColor=none;dashed=0;verticalLabelPosition=bottom;verticalAlign=top;align=center;html=1;fontSize=12;fontStyle=0;aspect=fixed;pointerEvents=1;shape=mxgraph.aws4.rds_postgresql_instance;" parent="1" vertex="1">
          <mxGeometry x="680" y="230" width="110" height="110" as="geometry" />
        </mxCell>
        <mxCell id="F0nHGyrmaJnnUvTs5qRS-9" style="rounded=0;orthogonalLoop=1;jettySize=auto;html=1;entryX=1;entryY=0.75;entryDx=0;entryDy=0;edgeStyle=orthogonalEdgeStyle;endSize=14;" parent="1" source="F0nHGyrmaJnnUvTs5qRS-4" target="F0nHGyrmaJnnUvTs5qRS-2" edge="1">
          <mxGeometry relative="1" as="geometry">
            <Array as="points">
              <mxPoint x="569" y="495" />
              <mxPoint x="569" y="420" />
            </Array>
          </mxGeometry>
        </mxCell>
        <mxCell id="F0nHGyrmaJnnUvTs5qRS-4" value="" style="sketch=0;outlineConnect=0;fontColor=#232F3E;gradientColor=none;fillColor=#2E27AD;strokeColor=none;dashed=0;verticalLabelPosition=bottom;verticalAlign=top;align=center;html=1;fontSize=12;fontStyle=0;aspect=fixed;pointerEvents=1;shape=mxgraph.aws4.rds_postgresql_instance;" parent="1" vertex="1">
          <mxGeometry x="680" y="440" width="110" height="110" as="geometry" />
        </mxCell>
        <mxCell id="F0nHGyrmaJnnUvTs5qRS-12" value="Replication" style="text;html=1;strokeColor=none;fillColor=none;align=center;verticalAlign=middle;whiteSpace=wrap;rounded=0;fontSize=16;fontStyle=0" parent="1" vertex="1">
          <mxGeometry x="730" y="360" width="120" height="40" as="geometry" />
        </mxCell>
        <mxCell id="AmDN_0QQSHWPWJg12x6_-1" value="&lt;div style=&quot;text-align: left; font-size: 14px;&quot;&gt;&lt;span style=&quot;background-color: initial; font-size: 14px;&quot;&gt;- add/get user&lt;/span&gt;&lt;/div&gt;&lt;div style=&quot;text-align: left; font-size: 14px;&quot;&gt;&lt;span style=&quot;background-color: initial; font-size: 14px;&quot;&gt;- add friend (contact)&lt;/span&gt;&lt;/div&gt;&lt;div style=&quot;text-align: left; font-size: 14px;&quot;&gt;&lt;span style=&quot;background-color: initial; font-size: 14px;&quot;&gt;- get friend list (contact list)&lt;/span&gt;&lt;/div&gt;" style="text;html=1;strokeColor=none;fillColor=none;align=center;verticalAlign=top;whiteSpace=wrap;rounded=0;fontSize=14;" vertex="1" parent="1">
          <mxGeometry x="290" y="470" width="170" height="90" as="geometry" />
        </mxCell>
      </root>
    </mxGraphModel>
  </diagram>
</mxfile>
